<?xml version="1.0" encoding="UTF-8"?>
<svg enable-background="new 0 0 289 334" version="1.1" viewBox="0 0 289 334" xml:space="preserve" xmlns="http://www.w3.org/2000/svg">
<style type="text/css">
	.st0{fill:#FFFFFF;}
</style>
	<path class="st0" d="m146.6 110.2c26.8 0 53.7 0.1 80.5-0.1 3.8 0 4.7 1 4.7 4.7-0.1 41.7-0.2 83.3 0 125 0 15.4-12.3 24.1-23.6 23.3-9.9-0.7-9.9-0.1-9.9 9.7 0 12-0.4 24 0.1 36 0.4 9.2-7.3 15.5-17.5 15.8-10.2 0.2-17.5-6.4-17.6-15.7-0.1-13.8-0.1-27.7 0.1-41.5 0-3.5-0.9-4.5-4.4-4.4-8.7 0.2-17.3 0.3-26 0-3.4-0.1-4.1 1.1-4 4.2 0.2 13.2 0.1 26.3 0.1 39.5 0 13.5-11 21.2-24 16.7-7.4-2.5-10.8-7.3-10.9-15.4 0-13.5-0.2-27 0.1-40.5 0.1-3.9-1.1-4.7-4.8-4.6-4.3 0.1-8.6 0.7-12.9-0.7-9.2-3-15.5-10.8-15.5-20.4-0.1-42.7 0-85.3-0.1-128 0-4 2.1-3.6 4.7-3.6h80.9z"/>
	<path class="st0" d="m146.2 98.7c-26.8 0-53.6-0.1-80.4 0.1-4.1 0-5.1-1.1-4.5-5.1 3.9-25.1 15.8-44.5 39.3-55.8 2.7-1.3 2.8-2.4 1.2-4.7-3.8-5.2-7.3-10.7-10.9-16-1.3-1.9-2.5-3.9 0.2-5.5 2.5-1.5 3.6 0.7 4.7 2.3 4 5.9 8 11.8 11.9 17.8 1.2 1.8 2.1 2.3 4.4 1.7 22.6-6.3 45.3-6.2 67.9-0.1 2.9 0.8 3.9-0.3 5.1-2.2 3.8-5.8 7.7-11.6 11.6-17.4 1.1-1.7 2.3-3.6 4.7-2 2.3 1.6 1.3 3.4 0.1 5.1-3.7 5.5-7.3 11.1-11.1 16.6-1.3 1.9-2 2.9 0.9 4.3 23.7 11.3 36.3 30.6 40 56.3 0.6 4.1-0.6 4.7-4.3 4.7-26.8-0.1-53.8-0.1-80.8-0.1zm36.4-24.6c5.4 0 9.5-4.1 9.5-9.4-0.1-5-4.1-9.2-9.1-9.4s-9.8 4.3-9.9 9.3c-0.2 5.2 4.1 9.5 9.5 9.5zm-72.8 0c5.4 0 9.4-4.2 9.3-9.5-0.1-5.1-4.2-9.1-9.2-9.2-5.1-0.1-9.7 4.4-9.7 9.4-0.1 5.3 4.1 9.4 9.6 9.3z"/>
	<path class="st0" d="m48 168v39.5c0 8.7-3.7 13.4-12.2 15.7-12.8 3.3-22.7-4.2-22.7-17.2v-77.9c0-8.6 4.1-14 12.1-15.9 8.7-2.1 17.8 1.2 21.5 7.7 1.1 2 1.3 4.1 1.3 6.3v41.8z"/>
	<path class="st0" d="m245 168c0-12.8 0.9-25.7-0.2-38.4-1.4-15.5 14.5-20.7 24.4-17.1 7.2 2.6 10.7 7.3 10.7 15v80.4c0 9.5-7.3 16-17.8 16-8.4-0.1-17.8-6.1-17.3-15.9 0.7-13.3 0.2-26.7 0.2-40z"/>
</svg>
