<?xml version="1.0" encoding="UTF-8"?>
<svg enable-background="new 0 0 335.9 355.8" version="1.1" viewBox="0 0 335.9 355.8" xml:space="preserve" xmlns="http://www.w3.org/2000/svg">
<style type="text/css">
	.st0{fill:#FFFFFF;}
	.st1{fill:#5018EA;}
	.st2{fill:#651FFF;}
	.st3{fill:#F2F2F2;}
	.st4{fill:#B3B3B3;}
</style>
<g transform="matrix(1.25 0 0 -1.25 -188.85 636.72)">
	<g transform="scale(.1)">
		<path class="st0" d="m2850 5093.8-1339.2-471.3 211.6-1754.6 1129-620.5 1134.9 628.9 211.5 1754.6-1347.8 462.9z"/>
		<path class="st1" d="m4064.3 4529.4-1217.4 415.1v-2549l1020.2 564.6 197.2 1569.3z"/>
		<path class="st2" d="m1661.1 4521.9 181.3-1569.2 1004.5-557.1v2549l-1185.8-422.7z"/>
		<path class="st3" d="m3129.1 3676.7-280 584.6-246.5-584.6h526.5zm106.7-245.8h-742.1l-166-415.3-308.8-5.7 828 1842.1 856.9-1842.1h-286.2l-181.8 421z"/>
		<path class="st4" d="m2846.9 4852 2.2-590.6 279.7-585.1h-281.3l-0.6-245 388.9-0.4 181.8-421 295.5-5.5-866.2 1847.6z"/>
	</g>
</g>
</svg>
