<?xml version="1.0" encoding="UTF-8"?>
<svg enable-background="new 0 0 359 351" version="1.1" viewBox="0 0 359 351" xml:space="preserve" xmlns="http://www.w3.org/2000/svg">
<style type="text/css">
	.st0{fill:#FFFFFF;}
	.st1{fill:#9FBACD;}
</style>
	<path class="st0" d="m255.5 335.9c-1.1-6.4-2.3-12.9-3.3-19.3-0.3-2.1-1.1-3.3-3.3-3.8-3.5-0.9-6.9-2.3-10-4.1-1.8-1.1-3.1-0.8-4.7 0.4-4.7 3.4-9.5 6.6-14.2 10.1-1.5 1.1-2.5 1.2-3.8-0.2-3.2-3.4-6.5-6.8-10-10-1.5-1.4-1.3-2.4-0.2-3.8 3.4-4.7 6.7-9.5 10.2-14.1 1.2-1.6 1.3-3 0.3-4.7-1.9-3.2-3.4-6.6-4.3-10.2-0.5-1.9-1.5-2.7-3.3-3-5.4-0.9-10.7-1.9-16.1-2.7-2.4-0.4-3.9-1-3.6-4 0.3-4.3 0.2-8.7 0.1-13.1 0-1.8 0.5-2.5 2.3-2.7 5.9-0.9 11.8-2 17.8-2.9 1.7-0.2 2.5-0.9 3-2.5 1.1-3.9 2.5-7.7 4.6-11.2 0.9-1.4 0.6-2.5-0.3-3.8-3.5-4.8-6.7-9.7-10.2-14.5-1.2-1.7-1.1-2.7 0.4-4.1 3.3-3.1 6.6-6.4 9.7-9.8 1.4-1.5 2.3-1.4 3.8-0.3 4.7 3.5 9.6 6.9 14.3 10.4 1.4 1 2.6 1.3 4.1 0.4 3.3-1.9 6.8-3.5 10.6-4.4 1.9-0.4 2.6-1.5 2.9-3.4 0.8-5.7 1.8-11.4 2.7-17.1 0.3-1.9 0.9-2.8 3.1-2.7 4.6 0.2 9.2 0.1 13.8 0 1.9-0.1 2.7 0.5 3 2.5 0.9 5.9 2.1 11.8 3.1 17.8 0.3 1.7 1 2.5 2.5 2.9 3.8 1 7.5 2.5 10.9 4.5 1.6 0.9 2.7 0.7 4.1-0.3 4.8-3.6 9.8-7 14.6-10.6 1.4-1.1 2.3-1 3.5 0.3 3.2 3.4 6.5 6.8 10 10 1.4 1.3 1.4 2.3 0.3 3.8-3.5 4.9-6.9 9.9-10.4 14.7-1 1.4-1.2 2.6-0.3 4.1 1.9 3.3 3.4 6.9 4.3 10.6 0.4 1.6 1.2 2.5 3.1 2.7 6.8 0.9 13.6 2.1 20.4 3.1v19c-6.8 1.1-13.5 2.3-20.3 3.4-1.7 0.3-2.8 1-3.2 2.7-0.9 3.9-2.5 7.5-4.4 10.9-0.8 1.5-0.7 2.5 0.3 3.8 3.6 4.8 7 9.8 10.5 14.6 1.1 1.5 1.4 2.4-0.2 3.8-3.4 3.2-6.7 6.6-9.9 10-1.3 1.4-2.3 1.4-3.8 0.3-4.7-3.5-9.6-6.8-14.4-10.3-1.5-1.1-2.7-1.5-4.4-0.4-3.4 2.1-7.1 3.4-10.8 4.6-1 0.3-2.1 0.6-2.3 2-1 7-2.8 13.9-3.4 21-6.6-0.4-12.9-0.4-19.2-0.4zm7.9-49.3c14.8 0.8 27.1-10.4 27.9-25.6 0.8-13.9-10.7-26.1-25.2-27-14.7-0.8-27.2 10.6-27.6 25.9-0.2 13 9.1 25.5 24.9 26.7z"/>
	<path class="st0" d="m151.3 10.2c29 0.1 57.6 3.6 85.1 13.3 14.5 5.1 28 11.9 39.4 22.5 10.8 10 14.8 23.8 9.8 35.9-3.2 7.7-8.7 13.6-15.1 18.6-14.8 11.5-31.9 18-49.7 22.7-20.1 5.2-40.5 7.6-61.2 8.2-25.1 0.7-50-1.5-74.4-7.4-15.7-3.8-30.7-9.3-44.5-17.8-8.6-5.3-16.2-11.5-21.3-20.4-6.4-11.2-5.3-23.8 2.8-34 10.2-12.8 23.9-20.2 38.7-26.1 21.4-8.5 43.8-12.6 66.7-14.5 7.7-0.8 15.7-1 23.7-1z"/>
	<path class="st0" d="m15.3 93.1c5.3 17.2 18.2 26.4 32.5 33.9 18.1 9.5 37.6 14.6 57.7 17.7 37.1 5.7 74.1 4.8 110.7-3.7 16.6-3.9 32.5-9.4 47-18.7 8.7-5.5 16.4-12 21.2-21.4 1.1-2.2 2-4.5 3.4-7.6v26.1c0 5.5 0.1 10.9-0.1 16.4-0.5 9.3-5.4 16.4-11.7 22.8-0.9 0.9-2 0.6-3.1 0.6h-17.1c-11.3 0.1-19.9 6.1-24 16.6-0.6 1.7-1.2 2.1-3 1.3-10.8-4.7-20.4-2.4-29 5.4-0.7 0.7-1.5 1.3-2.1 2.1-4.7 6.7-11.4 8.2-19.2 8.9-26.8 2.3-53.3 1.3-79.7-3.5-20.6-3.8-40.6-9.6-58.6-20.9-8.6-5.4-16.3-11.8-21.3-20.8-2.4-4.3-3.8-8.8-3.9-13.7v-39.4c0-0.5 0.1-1 0.3-2.1z"/>
	<path class="st0" d="m15.8 220.4c2.5 9.9 8.9 17.2 16.7 23.2 17.3 13.3 37.5 20 58.4 24.7 17.6 4 35.5 5.8 53.6 6.2 5.8 0.1 11.6 0 17.3-0.2 1.8-0.1 2.6 0.4 3.2 2.3 2.5 8.1 7.7 13.8 15.8 16.8 1 0.4 2.2 0.5 1.4 2.2-3.9 7.8-3.5 15.6 0.5 23.8-6 0.5-11.7 1.1-17.4 1.3-25.9 1-51.6-0.5-76.9-6.5-19.9-4.7-39.1-11.3-55.6-23.9-6.2-4.7-11.3-10.3-14.8-17.3-2.2-4.3-3-8.8-3-13.6v-39h0.8z"/>
	<path class="st0" d="m15 156.9c5.5 16.6 18.3 25.8 32.7 33.3 21 10.9 43.8 16.1 67.1 19.1 20.7 2.6 41.4 2.8 62.2 1.2 1.8-0.1 2.8 0 2.6 2.3-0.3 4 0.6 7.8 2.4 11.4 0.8 1.6 0.5 2.2-1.1 2.8-11.5 4.6-17 12.9-17 25.7 0 5.1 0 5-5 5.1-27.9 0.7-55.5-2.1-82.4-9.9-15.9-4.6-31.2-10.8-44.4-21.2-4.7-3.7-8.9-8.1-12.2-13.2-3.7-5.8-5.2-12.1-5.1-19 0.2-11.3 0-22.5 0-33.8 0.2-1.3 0.2-2.6 0.2-3.8z"/>
	<path class="st1" d="m15.8 220.4h-0.7c-0.8-1-0.4-2.2-0.3-3.4 1.1 1 1.2 2.2 1 3.4z"/>
</svg>
