<?xml version="1.0" encoding="UTF-8"?>
<svg enable-background="new 0 0 192.8 187.1" version="1.1" viewBox="0 0 192.8 187.1" xml:space="preserve" xmlns="http://www.w3.org/2000/svg">
<style type="text/css">
	.st0{fill:#FFFFFF;}
	.st1{fill:#FEFEFE;}
</style>
	<path class="st0" d="m85.7 94.8c0.7-2.3 0.2-4.6 1.9-7.1 15.5-22.3 30.7-44.8 45.9-67.3 0.2-0.3 0.4-0.5 0.6-0.8 7-10.4 13.5-13.6 19.6-9.9 6.2 3.9 5.8 10.7-1.1 21.5-0.7 1-0.9 2.3-1.3 3.1h22.5c5.6 0 8.2 2.4 8.1 8.4-0.2 33.7-0.2 67.4 0 101.2 0 6.2-2.9 7.9-8.4 7.9-50.4-0.1-100.8-0.1-151.3 0-6.6 0-9.5-2.7-9.5-9.4 0.1-32.7 0.1-65.5 0-98.2 0-5.8 1.9-9.9 8.1-9.9 31.6-0.1 63.3-0.1 95.5-0.1-2.6 8.5-7 11.5-15.2 11.3-22.9-0.5-45.8 0.1-68.7-0.4-7.5-0.2-9.4 2.3-9.2 9.5 0.4 22.3 0.3 44.5 0.1 66.8-0.1 5.9 1 8.8 8 8.7 44.5-0.3 89.1-0.3 133.6 0 6.2 0 7.7-2.1 7.6-7.9-0.3-23.2-0.3-46.5 0-69.7 0.1-5.5-1.6-7-7.2-7.4-6.5-0.5-13.7 3.5-19.9-3.1-2.1-2.3-4.8 2.4-6.5 4.4-13.5 15.4-26.8 30.6-40.2 45.9-2.1 2.4-4 5.1-7.2 6.3l0.1 0.1c0.3-1.7-1-1.8-2.1-2.1l0.2 0.1c-0.9-1.6-1.9-3-4-1.9z"/>
	<path class="st0" d="m73.4 176.3c4-12.8 10.4-18.4 25.1-18.8 15.5-0.4 19.2 7.8 24.1 18.8h-49.2z"/>
	<path class="st0" d="m91.5 98.6c3.3 9.6-1.9 13.6-10.3 15.3-7.6 1.5-15.3 2.8-25.1-0.5 9.2-0.5 13.4-4.3 15-11.2 1.9-8.2 8.4-7.6 14.7-7.4l-0.1-0.1c0.6 2.3 1.8 3.2 4.1 2l-0.2-0.1c-0.7 2.1 0.3 2.5 2.1 2.1l-0.2-0.1z"/>
	<path class="st1" d="m89.7 96.8c-2.3 1.2-3.5 0.2-4.1-2 2.2-1.1 3.1 0.4 4.1 2z"/>
	<path class="st1" d="m91.6 98.8c-1.8 0.4-2.8 0-2.1-2.1 1.1 0.3 2.4 0.4 2.1 2.1z"/>
</svg>
