<?xml version="1.0" encoding="UTF-8"?>
<svg enable-background="new 0 0 2822.3 1561.2" version="1.1" viewBox="0 0 2822.3 1561.2" xml:space="preserve" xmlns="http://www.w3.org/2000/svg">
<style type="text/css">
	.st0{display:none;}
	.st1{display:inline;}
	.st2{fill:url(#d);}
	.st3{fill:#8B8C8C;stroke:#000000;stroke-width:4;stroke-miterlimit:10;}
	.st4{fill:#828281;stroke:#000000;stroke-width:5;stroke-miterlimit:10;}
	.st5{opacity:0.85;}
	.st6{fill:url(#c);}
	.st7{opacity:0.76;}
	.st8{fill:#FFFFFF;}
	.st9{fill:#040506;}
	.st10{fill:url(#b);}
	.st11{fill:url(#a);}
</style>
<g class="st0">
	<rect class="st1" width="1757.5" height="1360.6"/>
</g>
		<radialGradient id="d" cx="878.74" cy="680.32" r="2121.7" gradientTransform="scale(1.6059 1.1474)" gradientUnits="userSpaceOnUse">
		<stop stop-color="#fff" offset="0"/>
		<stop stop-color="#B2C7E8" offset=".2704"/>
		<stop stop-color="#0072BA" offset=".5357"/>
	</radialGradient>
	<rect class="st2" width="2822.3" height="1561.2"/>
		<path class="st3" d="m1802.9 2016.2c-74.4 6.3-206.1 55.3-264.4 83.7l58.5-105.4c46.8 15.9 144.3-5 170.3-43.5"/>
		<path class="st3" d="m1867.8 2016.5c74.4 6.3 213.5 64.3 271.8 92.8l-65.9-114.4c-46.8 15.9-144.3-5-170.3-43.5"/>
		<path class="st3" d="m1854.7 1644.3c-6.1 0.3-13.4 0.2-19.8 0.3-6.5-0.1-12.8-0.4-18.8-0.6-73-3.4-118.5 0.2-180.2-29.9l-34 81c53-18 133-22.1 170 19.3 68.4 76.7 48 209.7-4.5 326.7l35.6 65.1 31.9 58.4 32.9-58.1 35.6-65.1c-42.2-123.8-59.8-248.4-4.5-326.7 32.9-46.6 113.9-41.6 166.9-23.6l-37.9-79.8c-61.7 30.1-100.3 29.6-173.2 33z"/>
		<path class="st4" d="m1435.1 515.7"/>
			<g class="st5">
				<path d="m1655.3 1000.4c-48.3-23.5-134.6-58.4-190.2-70.1l-48.1 84.9-46.7-85.3c-56.4 10.8-139.8 41.5-183.5 62.8l-108 52.6 122.4-220.6 29.9 10.2c2.2 0.7 8.5 2.5 20.2 2.5 16.2 0 35.4-3.4 51.4-9 14.9-5.2 22.6-10.7 25.6-13.7 20.5-46.8 32.5-92.1 34.6-131.3 2.3-41.8-6.6-74.3-26.4-96.5-8.1-9.1-25.7-14.3-48.1-14.3-17.4 0-36.8 3.2-53.4 8.8l-79.6 27 76.4-182.1 36 17.5c36.2 17.6 63.3 18.6 108.1 20.1 8.7 0.3 17.7 0.6 27.5 1.1 4.7 0.2 9.4 0.4 14 0.5 1.9 0 3.9-0.1 5.9-0.1 3.3 0 6.4-0.1 8.9-0.2 4.7-0.2 9.2-0.4 13.6-0.6 50.4-2.3 75.7-3.4 116.1-23.1l34.4-16.8 86.5 182-84.8-28.8c-16.5-5.6-35.4-8.8-52-8.8-21.6 0-37.8 5.3-44.3 14.5-31.4 44.4-29.2 124.6 6.5 232 3.5 3.1 11.2 8.1 24.7 12.8 16 5.6 35.2 9 51.4 9 11.7 0 18.1-1.7 20.2-2.5l29.5-10 132.1 229.5-110.8-54z"/>
			</g>
				<linearGradient id="c" x1="907.94" x2="1917" y1="732.9" y2="726.22" gradientUnits="userSpaceOnUse">
					<stop stop-color="#005DA9" offset="0"/>
					<stop stop-color="#6599D2" offset=".4949"/>
					<stop stop-color="#005DA9" offset="1"/>
				</linearGradient>
				<path class="st6" d="m1643.9 989c-48.3-23.5-134.6-58.4-190.2-70.1l-48.1 84.9-46.7-85.3c-56.4 10.8-139.8 41.5-183.5 62.8l-108 52.6 122.4-220.6 29.9 10.2c2.2 0.7 8.5 2.5 20.2 2.5 16.2 0 35.4-3.4 51.4-9 14.9-5.2 22.6-10.7 25.6-13.7 20.5-46.8 32.5-92.1 34.6-131.3 2.3-41.8-6.6-74.3-26.4-96.5-8.1-9.1-25.7-14.3-48.1-14.3-17.4 0-36.8 3.2-53.4 8.8l-79.6 27 76.4-182.1 36 17.5c36.2 17.6 63.3 18.6 108.1 20.1 8.7 0.3 17.7 0.6 27.5 1.1 4.7 0.2 9.4 0.4 14 0.5 1.9 0 3.9-0.1 5.9-0.1 3.3 0 6.4-0.1 8.9-0.2 4.7-0.2 9.2-0.4 13.6-0.6 50.4-2.3 75.7-3.4 116.1-23.1l34.4-16.8 86.5 182-84.8-28.8c-16.5-5.6-35.4-8.8-52-8.8-21.6 0-37.8 5.3-44.3 14.5-31.4 44.4-29.2 124.6 6.5 232 3.5 3.1 11.2 8.1 24.7 12.8 16 5.6 35.2 9 51.4 9 11.7 0 18.1-1.7 20.2-2.5l29.5-10 132.1 229.5-110.8-54z"/>
			<g class="st7">
				<path d="m1214.4 853.5 10.2 3.5c7.6 2.6 17.2 3.9 28.3 3.9 40.1 0 86.4-16.5 99.1-35.2l1.1-1.7 7.5 5.1v-2.3l3 4h11.8v5.9l-2.2 3.3c-0.8 1.1-1.6 2.3-2.5 3.5l17.1 31.2c1.2-0.1 2.3-0.2 3.5-0.3l2-0.2 2.2 25.6-2 0.2c-58.7 5-165.1 43.8-216.2 68.6l-36.7 17.9 73.8-133z"/>
				<path d="m1353.6 826.8 9 6.1h10.8v3.3l-1.9 2.8c-1 1.5-2.1 2.9-3.3 4.3l18.4 33.6c1.6-0.2 3.2-0.3 4.7-0.5l1.8 21.6c-59 5-165.7 43.9-216.9 68.8l-30.9 15.1 69.9-126 8.6 2.9c8.1 2.8 18.1 4 28.9 4 38.5 0.1 87.2-15.7 100.9-36m5-9.4v8l-2.8-1.9-3.3-2.2-2.2 3.3c-5.9 8.7-20.2 17.5-39.1 24.1-18.7 6.5-39.9 10.2-58.3 10.2-10.9 0-20.2-1.3-27.6-3.8l-8.6-2.9-3.2-1.1-1.6 2.9-69.9 126-6.2 11.1 11.4-5.6 30.9-15.1c50.9-24.8 157-63.5 215.5-68.4l4-0.3-0.3-4-1.8-21.6-0.3-4-4 0.3c-0.7 0.1-1.4 0.1-2.2 0.2l-15.8-28.9c0.6-0.8 1.3-1.7 1.8-2.5l1.9-2.8 0.7-1v-8.5h-4-8.5l-6.5-11.5z"/>
				<path d="m1667.7 976.5c-46.5-22.6-162-71.1-222.3-76.2l-2-0.2 2.2-25.6 2 0.2c1.1 0.1 2.3 0.2 3.5 0.3l17.1-31.2c-0.9-1.2-1.8-2.3-2.5-3.4l-2.2-3.3v-5.9h11.6l3.2-6.5v4.7l7.5-5.1 1.1 1.7c12.7 18.8 59 35.2 99.1 35.2 11.1 0 20.7-1.3 28.3-3.9l10-3.4 81.2 141-37.8-18.4z"/>
				<path d="m1485.2 827.1c13.7 20.3 62.4 36.1 100.7 36.1 10.8 0 20.8-1.3 28.9-4l8.4-2.9 77.1 133.9-31.8-15.5c-46.6-22.7-162.4-71.2-223-76.4l1.8-21.6c1.6 0.1 3.1 0.3 4.7 0.5l18.4-33.6c-1.2-1.4-2.3-2.9-3.3-4.3l-1.9-2.8v-3.3h10.8l9.2-6.1m-5-9.8-6.4 11.8h-8.5-4v8.5l0.7 1 1.9 2.8c0.6 0.8 1.2 1.7 1.8 2.5l-15.8 28.9c-0.7-0.1-1.5-0.1-2.2-0.2l-4-0.3-0.3 4-1.8 21.6-0.3 4 4 0.3c60.1 5.1 175.3 53.4 221.6 76l31.8 15.5 11.7 5.7-6.5-11.3-77.1-133.9-1.6-2.9-3.1 1.1-8.4 2.9c-7.4 2.5-16.7 3.8-27.6 3.8-18.4 0-39.6-3.7-58.3-10.2-19-6.6-33.2-15.4-39.1-24.1l-2.2-3.3-3.3 2.2-2.8 1.9v-8.3h-0.2z"/>
			</g>
						<path class="st8" d="m1203.1 842.2 10.2 3.5c7.6 2.6 17.2 3.9 28.3 3.9 40.1 0 86.4-16.5 99.1-35.2l1.1-1.7 7.5 5.1v-2.3l3 4h11.8v5.9l-2.2 3.3c-0.8 1.1-1.6 2.3-2.5 3.5l17.1 31.2c1.2-0.1 2.3-0.2 3.5-0.3l2-0.2 2.2 25.6-2 0.2c-58.7 5-165.1 43.8-216.2 68.6l-36.7 17.9 73.8-133z"/>
						<path class="st9" d="m1342.3 815.5 9 6.1h10.8v3.3l-1.9 2.8c-1 1.5-2.1 2.9-3.3 4.3l18.4 33.6c1.6-0.2 3.2-0.3 4.7-0.5l1.8 21.6c-59 5-165.7 43.9-216.9 68.8l-30.9 15.1 69.9-126 8.6 2.9c8.1 2.8 18.1 4 28.9 4 38.4 0.1 87.1-15.7 100.9-36m5-9.5v8l-2.8-1.9-3.3-2.2-2.2 3.3c-5.9 8.7-20.2 17.5-39.1 24.1-18.7 6.5-39.9 10.2-58.3 10.2-10.9 0-20.2-1.3-27.6-3.8l-8.6-2.9-3.2-1.1-1.6 2.9-69.9 126-6.2 11.1 11.4-5.6 30.9-15.1c50.9-24.8 157-63.5 215.5-68.4l4-0.3-0.3-4-1.8-21.6-0.3-4-4 0.3c-0.7 0.1-1.4 0.1-2.2 0.2l-15.8-28.9c0.6-0.8 1.3-1.7 1.8-2.5l1.9-2.8 0.7-1v-8.5h-4-8.5l-6.5-11.5z"/>
						<path class="st8" d="m1656.4 965.1c-46.5-22.6-162-71.1-222.3-76.2l-2-0.2 2.2-25.6 2 0.2c1.1 0.1 2.3 0.2 3.5 0.3l17.1-31.2c-0.9-1.2-1.8-2.3-2.5-3.4l-2.2-3.3v-5.9h11.6l3.2-6.5v4.7l7.5-5.1 1.1 1.7c12.7 18.8 59 35.2 99.1 35.2 11.1 0 20.7-1.3 28.3-3.9l10-3.4 81.2 141-37.8-18.4z"/>
						<path class="st9" d="m1473.9 815.7c13.7 20.3 62.4 36.1 100.7 36.1 10.8 0 20.8-1.3 28.9-4l8.4-2.9 77.1 133.9-31.8-15.5c-46.6-22.7-162.4-71.2-223-76.4l1.8-21.6c1.6 0.1 3.1 0.3 4.7 0.5l18.4-33.6c-1.2-1.4-2.3-2.9-3.3-4.3l-1.9-2.8v-3.3h10.8l9.2-6.1m-5-9.7-6.4 11.8h-8.5-4v8.5l0.7 1 1.9 2.8c0.6 0.8 1.2 1.7 1.8 2.5l-15.8 28.9c-0.7-0.1-1.5-0.1-2.2-0.2l-4-0.3-0.3 4-1.8 21.6-0.3 4 4 0.3c60.1 5.1 175.3 53.4 221.6 76l31.8 15.5 11.7 5.7-6.5-11.3-77.1-133.9-1.6-2.9-3.1 1.1-8.4 2.9c-7.4 2.5-16.7 3.8-27.6 3.8-18.4 0-39.6-3.7-58.3-10.2-19-6.6-33.2-15.4-39.1-24.1l-2.2-3.3-3.3 2.2-2.8 1.9v-8.3h-0.2z"/>
			<g class="st7">
				<path d="m1353.3 836.2v-6l1.1-2.5c22.9-51 36.3-101 38.7-144.4 2.6-48.7-8.4-87.2-32.7-114.5-14.8-16.5-39.2-21.3-57.1-22.4-3.1-0.2-6.4-0.3-9.7-0.3-20.3 0-42.1 3.6-61.4 10.2l-27 9.2 44.7-106.5 12.2 6c41 20 73.4 21.1 118.2 22.6 8.6 0.3 17.5 0.6 27.2 1.1 5.1 0.2 10.2 0.4 15.2 0.5 1.9 0 4-0.1 6.1-0.1 3.4 0 6.9-0.1 9.8-0.2 4.6-0.2 9-0.4 13.2-0.6h0.4c52.1-2.3 80.8-3.6 126-25.6l11.7-5.7 50.3 105.8-28.8-9.8c-18.8-6.4-40.8-10.1-60.4-10.1-21.3 0-49.8 4.3-64.4 25-37.4 52.9-35.6 140.8 5.4 261.1l0.7 2v5.4l-1.6 2.9-29.8 54.5-38.9 68.6-69.1-126.2z"/>
				<path d="m1588.9 459.6 47.4 99.7-24.3-8.3c-16.9-5.7-39.2-10.2-61-10.2-26.7 0-52.5 6.7-66 25.8-37.8 53.5-36.1 141.9 5.2 262.9l0.6 1.7v4.6l-1.3 2.4-29.8 54.5-37.1 65.4-67.1-122.6v-5.1l1-2.1c23-51.3 36.5-101.4 38.8-145.1 2.7-49.2-8.5-88.2-33.2-115.9-15.2-17-40.2-21.9-58.5-23-3.2-0.2-6.5-0.3-9.8-0.3-20.3 0-42.4 3.6-62 10.3l-22.8 7.8 42.2-100.4 10.3 5c41.4 20.2 73.9 21.3 119 22.8 8.6 0.3 17.6 0.6 27.1 1.1 5.1 0.2 10.2 0.4 15.2 0.5 2 0 4.1-0.1 6.2-0.1 3.4 0 6.9-0.1 9.9-0.2 4.7-0.2 9.2-0.4 13.6-0.6 52.4-2.3 81.3-3.6 126.8-25.8l9.6-4.8m1.8-5.4-3.6 1.8-9.9 4.8c-44.8 21.8-73.3 23.1-125.2 25.4h-0.2c-4.3 0.2-8.8 0.4-13.5 0.6-2.9 0.1-6.4 0.2-9.7 0.2-1.9 0-4.1 0-6.1 0.1-4.9-0.1-10-0.3-15-0.5-9.6-0.5-18.5-0.8-27.2-1.1-44.6-1.5-76.8-2.6-117.4-22.4l-10.3-5-3.8-1.9-1.6 3.9-42.2 100.4-3.4 8.2 8.4-2.9 22.8-7.8c19.1-6.5 40.7-10.1 60.8-10.1 3.2 0 6.4 0.1 9.5 0.3 17.5 1.1 41.4 5.7 55.7 21.7 24 26.9 34.8 64.9 32.2 113-2.3 43.2-15.6 92.8-38.5 143.7l-1 2.1-0.3 0.8v7l0.5 0.9 67.1 122.6 3.4 6.3 3.5-6.2 37.1-65.4 29.8-54.5 1.3-2.4 0.5-0.9v-6.3l-0.2-0.6-0.6-1.7c-40.8-119.7-42.7-207-5.7-259.3 14.1-20 41.9-24.2 62.7-24.2 19.3 0 41.1 3.6 59.7 10l24.3 8.3 9 3-4.1-8.5-47.4-99.7-1.4-3.7z"/>
			</g>
				<path class="st8" d="m1342 824.8v-6l1.1-2.5c22.9-51 36.3-101 38.7-144.4 2.6-48.7-8.4-87.2-32.7-114.5-14.8-16.5-39.2-21.3-57.1-22.4-3.1-0.2-6.4-0.3-9.7-0.3-20.3 0-42.1 3.6-61.4 10.2l-27 9.2 44.7-106.5 12.2 6c41 20 73.4 21.1 118.2 22.6 8.6 0.3 17.5 0.6 27.2 1.1 5.1 0.2 10.2 0.4 15.2 0.5 1.9 0 4-0.1 6.1-0.1 3.4 0 6.9-0.1 9.8-0.2 4.6-0.2 9-0.4 13.2-0.6h0.4c52.1-2.3 80.8-3.6 126-25.6l11.7-5.7 50.3 105.8-28.8-9.8c-18.8-6.4-40.8-10.1-60.4-10.1-21.3 0-49.8 4.3-64.4 25-37.4 52.9-35.6 140.8 5.4 261.1l0.7 2v5.4l-1.6 2.9-29.8 54.5-38.9 68.6-69.1-126.2z"/>
				<path class="st9" d="m1577.5 448.3 47.4 99.7-24.3-8.3c-16.9-5.7-39.2-10.2-61-10.2-26.7 0-52.5 6.7-66 25.8-37.8 53.5-36.1 141.9 5.2 262.9l0.6 1.7v4.6l-1.3 2.4-29.8 54.5-37.1 65.4-67.2-122.5v-5.1l1-2.1c23-51.3 36.5-101.4 38.8-145.1 2.7-49.2-8.5-88.2-33.2-115.9-15.2-17-40.2-21.9-58.5-23-3.2-0.2-6.5-0.3-9.8-0.3-20.3 0-42.4 3.6-62 10.3l-22.8 7.8 42.2-100.4 10.3 5c41.4 20.2 73.9 21.3 119 22.8 8.6 0.3 17.6 0.6 27.1 1.1 5.1 0.2 10.2 0.4 15.2 0.5 2 0 4.1-0.1 6.2-0.1 3.4 0 6.9-0.1 9.9-0.2 4.7-0.2 9.2-0.4 13.6-0.6 52.4-2.3 81.3-3.6 126.8-25.8l9.7-4.9m1.9-5.4-3.6 1.8-9.9 4.8c-44.8 21.8-73.3 23.1-125.2 25.4h-0.2c-4.3 0.2-8.8 0.4-13.5 0.6-2.9 0.1-6.4 0.2-9.7 0.2-1.9 0-4.1 0-6.1 0.1-4.9-0.1-10-0.3-15-0.5-9.6-0.5-18.5-0.8-27.2-1.1-44.6-1.5-76.8-2.6-117.4-22.4l-10.3-5-3.8-1.9-1.6 3.9-42.2 100.4-3.4 8.2 8.4-2.9 22.8-7.8c19.1-6.5 40.7-10.1 60.8-10.1 3.2 0 6.4 0.1 9.5 0.3 17.5 1.1 41.4 5.7 55.7 21.7 24 26.9 34.8 64.9 32.2 113-2.3 43.2-15.6 92.8-38.5 143.7l-1 2.1-0.3 0.8v7l0.5 0.9 67.1 122.6 3.4 6.3 3.5-6.2 37.1-65.4 29.8-54.5 1.3-2.4 0.5-0.9v-6.3l-0.2-0.6-0.6-1.7c-40.8-119.7-42.7-207-5.7-259.3 14.1-20 41.9-24.2 62.7-24.2 19.3 0 41.1 3.6 59.7 10l24.3 8.3 9 3-4.1-8.5-47.4-99.7-1.4-3.7z"/>
				<linearGradient id="b" x1="1152" x2="1657.7" y1="1056.1" y2="1056.1" gradientUnits="userSpaceOnUse">
					<stop stop-color="#005DA9" offset="0"/>
					<stop stop-color="#6599D2" offset=".4949"/>
					<stop stop-color="#005DA9" offset="1"/>
				</linearGradient>
				<path class="st10" d="m1165.4 1083.9v0.7h16.9v-0.7c6.5-1.6 10.3-5.5 12.1-10l10.8 10.8h4.3c1 0 2-0.1 2.9-0.1v0.1h4.9l2.6 2.6v-2.6h2.9c12.6 0 18.2-6.8 19.5-13.8h9.1c2.8 0.1 5.5-0.3 7.9-1.1 1.2 3.6 3.4 6.7 6.5 9.3 4.4 3.7 10 5.7 16.1 5.7h23.8c2.3 0 4.6-0.3 6.7-0.9v0.9h30.3v-10.4l10.4 10.4h42.5l-4.3-4.3c2-1.6 3.4-3.6 4.4-5.7l8 7.4 6.4-5.9v8.5h10.4c4.8 0 8.6-1 11.5-2.6 2.9 1.6 6.6 2.7 11.3 2.7h0.1l31.2-0.1c14.4 0 19.5-9.6 19.5-17.9v-9.6h1.3v27.5h10.4c14.7 0 19.9-9.5 19.9-17.6v-9.9h0.2v10.1c0 8 5.2 17.4 19.9 17.4h10.4v-0.9c2.1 0.6 4.4 0.9 6.7 0.9h23.8c2.3 0 4.6-0.3 6.7-0.9v0.9h10.4c10.7 0 16.3-5 18.6-10.8l10.8 10.8h4.3c2.6 0 4.9-0.3 7-0.8l3.5 3.4v-4.6c6.8-3.2 9.4-9.6 9.4-15.2v-39.3h-10.4c-10.7 0-16.3 4.9-18.6 10.7l-10.9-10.7h-4.3c-2.5 0-4.7 0.3-6.7 0.8l-3.7-3.7v5c-1 0.5-2 1-2.8 1.7-3.9-2.4-8.5-3.7-13.4-3.7h-23.8c-4.9 0-9.5 1.3-13.4 3.7-1.6-1.1-3.4-2.1-5.6-2.7v-1h-47.8c-4.6 0-8.5 1.2-11.5 3.4-3.5-2.2-7.6-3.4-12.1-3.4h-20.5c-6 0-11.3 2.1-15.3 6.1-1.4-1.5-3.1-2.9-5.4-3.9v-1.5l-1.1 1c-2.6-1-5.9-1.7-9.7-1.7h-4.3l-12.1 12-12.1-12h-4.3c-3.9 0-7.1 0.6-9.8 1.7l-1.1-1.1v1.6c-2 0.9-3.6 2.1-4.9 3.5-3.9-3.7-9-5.7-14.7-5.7h-44.5v0.9c-2.1-0.6-4.4-0.9-6.7-0.9h-23.8c-1 0-2.1 0.1-3.1 0.2v-0.2h-46.8c-0.9 0-1.8 0.1-2.7 0.1v-0.1h-10.5c-10.7 0-16.3 4.9-18.6 10.7l-10.9-10.7h-4.3c-2.5 0-4.7 0.3-6.7 0.8l-3.7-3.7v5c-0.3 0.2-0.7 0.3-1 0.5-2.9-1.6-6.7-2.6-11.4-2.6h-10.4v39.3c0 6.2 3.7 13.8 13.4 16.2z"/>
				<linearGradient id="a" x1="1152" x2="1682.7" y1="1116.6" y2="1116.6" gradientUnits="userSpaceOnUse">
					<stop stop-color="#005DA9" offset="0"/>
					<stop stop-color="#6599D2" offset=".4949"/>
					<stop stop-color="#005DA9" offset="1"/>
				</linearGradient>
				<path class="st11" d="m1645.4 1088.5-10.6 10.6-9.7-10.6h-50.8c-5.7 0-10.9 1.7-15.2 5-4.3-3.3-9.5-5-15.2-5h-23.8c-6.1 0-11.6 2-16.1 5.7-5 4.2-7.6 9.7-7.6 16.1v7.9c-2.8-1.4-6.4-2.3-10.7-2.3h-3.3v-10.1c0-8-5.2-17.4-20-17.4h-10.4v0.9c-2.1-0.6-4.4-0.9-6.7-0.9h-23.8c-2.3 0-4.6 0.3-6.7 0.9v-0.9h-10.4c-10.7 0-16.3 4.9-18.6 10.7l-10.9-10.7h-4.3c-2.5 0-4.7 0.3-6.7 0.8l-3.7-3.7v5c-1.7 0.8-3.1 1.8-4.3 2.9-3.2-3-8-5-14.8-5h-10l0.1-0.1h-59c-1.5 0-3 0.1-4.4 0.4l0.1-0.3h-46.9c-0.7 0-1.5 0-2.2 0.1v-0.1h-48.2c-11.3 0-18.6 7.4-18.6 18.8v10.4h18.3v27.5h10.4c14.7 0 19.9-9.5 19.9-17.6v-9.9c0.3 0 0.5 0 0.8-0.1v8.8c0 11.4 7.8 18.8 19.9 18.8h22.4c5.3 0 10-1.6 13.8-4.7 4.2 3 9.3 4.7 14.8 4.7h20.3c4.4 0 8.3-1.1 11.7-3.2 3.1 2 7.2 3.3 12.6 3.3h10.4v-13.8h3.7c1.4 7 7 13.8 19.6 13.8h10.6c10.7 0 16.3-5 18.6-10.8l10.8 10.8h4.3c2.6 0 4.9-0.3 7-0.8l3.5 3.4v-4.6c1-0.5 2-1 2.8-1.7 3.9 2.4 8.5 3.7 13.4 3.7h23.8c5.7 0 10.9-1.7 15.2-5 4.3 3.3 9.5 5 15.2 5h30.5v-4.1c4 2.7 8.8 4.1 14 4.1h23.8c5.7 0 10.9-1.7 15.2-5 4.3 3.3 9.5 5 15.2 5h22c12 0 19.7-7.4 19.7-18.8v-4.9l3.2 3.5v20.1h30.3v-20.1l33.1-36.5h-37.4zm-314.7 13.7h-3.7c-0.5-2.5-1.6-5-3.3-7.1l7-6.2v13.3z"/>
					<path class="st8" d="m1170.1 1074.8c-6.3 0-9.4-2.3-9.4-7v-28.8c6.3 0 9.4 2.3 9.4 6.9v28.9z"/>
					<path class="st8" d="m1207.8 1074.8-24.3-24.1v17.1c0 4.7-3.1 7-9.4 7v-28.9c0-4.6 3.1-6.9 9.4-6.9l24.3 23.9v-17.1c0-4.5 3.1-6.8 9.4-6.8v28.9c0.1 4.6-3.1 6.9-9.4 6.9z"/>
					<path class="st8" d="m1221.2 1074.8v-27.4c0-5.6 3.1-8.4 9.2-8.4h33.9c-0.4 1.9-1.4 3.7-2.9 5.2-1.5 1.6-3.4 2.6-5.6 3.1l-0.1 0.1h-0.6c-0.6 0.1-2.8 0.1-6.5 0h-18.1v5.4h30.5c-0.4 1.9-1.4 3.7-2.9 5.2-2.1 2.2-4.8 3.2-8.2 3.1l-19.4 0.1v6.9c0.1 4.4-3 6.7-9.3 6.7z"/>
					<path class="st8" d="m1317.3 1063.5c0 3.2-1.3 5.9-3.9 8.1s-5.7 3.2-9.4 3.2h-23.8c-3.7 0-6.8-1.1-9.4-3.2-2.6-2.2-3.9-4.9-3.9-8.1v-13.1c0-3.2 1.3-5.9 3.9-8.1s5.7-3.2 9.4-3.2h23.8c3.7 0 6.8 1.1 9.4 3.2 2.6 2.2 3.9 4.9 3.9 8.1v13.1zm-9.5 0v-13.1c0-2-1.3-3-3.8-3h-23.8c-2.5 0-3.8 1-3.8 3v13.1c0 2 1.3 3 3.8 3h23.8c2.6-0.1 3.8-1 3.8-3z"/>
					<path class="st8" d="m1356.8 1063 12 11.7h-12.9l-11.7-11.7h-13.5v11.7h-9.4v-20.1l34.1 0.1c1.4 0 2-1.2 2-3.7s-0.7-3.8-2-3.8h-25.2c-5.9 0-8.9-2.8-8.9-8.3h34.1c3.5 0 6.3 1.3 8.5 3.8 2 2.3 3 5.1 3 8.3s-1 5.9-3 8.2c-1.9 2.3-4.3 3.5-7.1 3.8z"/>
					<path class="st8" d="m1419 1074.8v-21.8l-16.8 15.5-16.8-15.5v14.7c0 4.8-3.1 7.2-9.4 7.2v-28.9c0-4.6 3.3-6.9 9.9-6.9l16.4 16.3 16.4-16.3c6.6 0 9.8 2.2 9.8 6.7v22.2c0 4.5-3.2 6.8-9.5 6.8z"/>
					<path class="st8" d="m1432.4 1067.1v-5c-0.1-5.2 3-7.9 9.2-8.1h31v-4c0-1.8-0.7-2.7-2-2.7l-31.6 0.1c0.4-1.9 1.4-3.7 2.9-5.2 2.1-2.2 4.8-3.3 8.2-3.3h20.5c3.4 0 6.2 1.1 8.3 3.3s3.2 4.8 3.2 7.8v17.3c0 5-3 7.4-9.1 7.4l-31.2 0.1c-6.2 0-9.4-2.6-9.4-7.7zm40.2-0.2v-4.4h-30.8v4.4h30.8z"/>
					<path class="st8" d="m1522.8 1047.3h-9.1v20.3c0 4.8-3.1 7.2-9.4 7.2v-27.5h-18.3c0-5.6 2.7-8.3 8.2-8.3h37.8c0 5.6-3.1 8.3-9.2 8.3z"/>
					<path class="st8" d="m1544.2 1074.8c-6.3 0-9.4-2.3-9.4-7v-28.8c6.3 0 9.4 2.3 9.4 6.9v28.9z"/>
					<path class="st8" d="m1598.4 1063.5c0 3.2-1.3 5.9-3.9 8.1s-5.7 3.2-9.4 3.2h-23.8c-3.7 0-6.8-1.1-9.4-3.2-2.6-2.2-3.9-4.9-3.9-8.1v-13.1c0-3.2 1.3-5.9 3.9-8.1s5.7-3.2 9.4-3.2h23.8c3.7 0 6.8 1.1 9.4 3.2 2.6 2.2 3.9 4.9 3.9 8.1v13.1zm-9.5 0v-13.1c0-2-1.3-3-3.8-3h-23.8c-2.5 0-3.8 1-3.8 3v13.1c0 2 1.3 3 3.8 3h23.8c2.6-0.1 3.8-1 3.8-3z"/>
					<path class="st8" d="m1636.1 1074.8-24.3-24.1v17.1c0 4.7-3.1 7-9.4 7v-28.9c0-4.6 3.1-6.9 9.4-6.9l24.3 23.9v-17.1c0-4.5 3.1-6.8 9.4-6.8v28.9c0 4.6-3.1 6.9-9.4 6.9z"/>
					<path class="st8" d="m1197.5 1107.9h-9.1v20.3c0 4.8-3.1 7.2-9.4 7.2v-27.5h-18.3c0-5.6 2.7-8.3 8.2-8.3h37.8c-0.1 5.5-3.1 8.3-9.2 8.3z"/>
					<path class="st8" d="m1244.7 1107.8-0.6 0.1c-0.6 0.1-2.8 0.1-6.5 0h-18.1v5.4h30.5c-0.4 1.9-1.4 3.7-2.9 5.2-2.1 2.2-4.8 3.2-8.2 3.1l-17 0.1h-2.4v5.4l17.9-0.1 15.6-0.1c-0.4 1.9-1.4 3.7-2.9 5.2-2.1 2.2-4.8 3.3-8.2 3.3h-22.4c-6.3 0-9.4-2.8-9.4-8.3v-19c0-5.6 3.1-8.4 9.2-8.4h33.9c-0.4 1.9-1.4 3.7-2.9 5.2-1.6 1.4-3.4 2.4-5.6 2.9z"/>
					<path class="st8" d="m1286.3 1126.9 15.6-0.1c-0.4 1.9-1.4 3.7-2.9 5.2-2.1 2.2-4.8 3.3-8.2 3.3h-4.5v-0.1l-15.8 0.1c-3.7 0-6.8-1.1-9.4-3.2-2.6-2.2-3.9-4.9-3.9-8.1v-13.1c0-3.2 1.3-5.9 3.9-8.1s5.7-3.2 9.4-3.2h31.3l-0.1 0.1c-0.4 1.9-1.4 3.6-2.9 5.1-2.1 2.2-4.8 3.3-8.2 3.3h-4.5v-0.1h-15.7c-2.5 0-3.8 1-3.8 3v13.1c0 2 1.3 3 3.8 3h15.9z"/>
					<path class="st8" d="m1348.8 1135.3c-6.3 0-9.5-2.3-9.5-6.9v-6.9h-24.2v13.8c-6.3 0-9.4-2.3-9.4-7v-28.8c6.3 0 9.4 2.3 9.4 6.8v6.9h24.2v-13.7c6.3 0 9.5 2.3 9.5 6.8v29z"/>
					<path class="st8" d="m1393.2 1135.3-24.3-24.1v17.1c0 4.7-3.1 7-9.4 7v-28.9c0-4.6 3.1-6.9 9.4-6.9l24.3 23.9v-17.1c0-4.5 3.1-6.8 9.4-6.8v28.9c0.1 4.6-3.1 6.9-9.4 6.9z"/>
					<path class="st8" d="m1456.8 1124c0 3.2-1.3 5.9-3.9 8.1s-5.7 3.2-9.4 3.2h-23.8c-3.7 0-6.8-1.1-9.4-3.2-2.6-2.2-3.9-4.9-3.9-8.1v-13.1c0-3.2 1.3-5.9 3.9-8.1s5.7-3.2 9.4-3.2h23.8c3.7 0 6.8 1.1 9.4 3.2 2.6 2.2 3.9 4.9 3.9 8.1v13.1zm-9.4 0v-13.1c0-2-1.3-3-3.8-3h-23.8c-2.5 0-3.8 1-3.8 3v13.1c0 2 1.3 3 3.8 3h23.8c2.5 0 3.8-1 3.8-3z"/>
					<path class="st8" d="m1460.7 1099.5c6.3 0 9.5 2.3 9.5 7v17.5c0 2 1.2 3 3.7 3h10.1c6.7 0 10 2.8 10 8.3h-20c-3.7 0-6.8-1.1-9.4-3.2-2.6-2.2-3.9-4.9-3.9-8.1v-24.5z"/>
					<path class="st8" d="m1555.4 1124c0 3.2-1.3 5.9-3.9 8.1s-5.7 3.2-9.4 3.2h-23.8c-3.7 0-6.8-1.1-9.4-3.2-2.6-2.2-3.9-4.9-3.9-8.1v-13.1c0-3.2 1.3-5.9 3.9-8.1s5.7-3.2 9.4-3.2h23.8c3.7 0 6.8 1.1 9.4 3.2 2.6 2.2 3.9 4.9 3.9 8.1v13.1zm-9.4 0v-13.1c0-2-1.3-3-3.8-3h-23.8c-2.5 0-3.8 1-3.8 3v13.1c0 2 1.3 3 3.8 3h23.8c2.5 0 3.8-1 3.8-3z"/>
					<path class="st8" d="m1594.6 1135.3h-22c-3.7 0-6.8-1.1-9.4-3.2-2.6-2.2-3.9-4.9-3.9-8.1v-13.1c0-3.2 1.3-5.9 3.9-8.1s5.7-3.2 9.4-3.2h28.6c0 5.6-3.4 8.3-10.3 8.3h-18.3c-2.5 0-3.8 1-3.8 3v13.1c0 2 1.3 3 3.8 3h21.9v-5.4h-5.7c-5.6 0-8.4-2.8-8.4-8.3h14c6.3 0 9.5 2.6 9.5 7.7v6c0 5.6-3.1 8.3-9.3 8.3z"/>
					<path class="st8" d="m1637.4 1121.6v13.8h-9.4v-13.8l-20.1-22h10.9l14 15.2 15.2-15.2h9.4l-20 22z"/>
</svg>
