<?xml version="1.0" encoding="UTF-8"?>
<svg enable-background="new 0 0 326 437" version="1.1" viewBox="0 0 326 437" xml:space="preserve" xmlns="http://www.w3.org/2000/svg">
<style type="text/css">
	.st0{fill:#FFFFFF;}
	.st1{fill:#ADC7FC;}
	.st2{fill:#FCFCFC;}
</style>
	<path class="st0" d="m151.2 420.6c-4.6-1.8-9.4-1.1-14.1-1.4-21.1-1.4-42-4.4-62.8-8.3-0.8-0.1-1.5-0.4-2.3-0.6-1.9-0.5-3.2-1.5-3-3.6 0.2-2.2 1.9-3 4-3 17.2 0.5 34.3 1 51.5 1.4 11.7 0.2 23.4 0.2 35.2 0.3 20 0.1 39.9-0.5 59.9-1.6 24.5-1.4 48.3-6.1 70.5-17 5-2.5 9.8-5.3 14.1-9 1.4-1.2 2.9-2.6 5-1.2 2 1.4 1.7 3.5 1 5.4-3.3 9.5-10.3 15.6-18.7 20.5-12.4 7.2-26.2 10.2-40.2 12.3-16.7 2.5-33.5 4.5-50.4 5-6.4 0.3-12.9-0.9-19.2 0.8h-30.5z"/>
	<path class="st1" d="m181.6 420.6c6.4-1.7 12.8-0.5 19.2-0.8-0.1 0.3-0.1 0.5 0 0.8h-19.2z"/>
	<path class="st2" d="m215.4 49.4c0.2 17.1-7.1 31.1-18.3 43.4-12.1 13.3-26.4 24-40 35.6-4 3.4-7.7 7-11.6 10.5-8.6 7.7-11 17.3-9.2 28.6 3.3 20.4 10.3 39.6 19 58.2 1.1 2.4 3.6 5.2 0.5 7.5s-5.1-0.9-7.1-2.6c-15.7-13.6-29.8-28.6-38.5-47.9-8.3-18.3-7.4-35.7 3.9-52.7 9.1-13.7 20.8-24.5 33.9-34.2 10.9-8.1 22.4-15.4 32.6-24.4 11.5-10 15.8-23.3 17.9-37.7 0.8-5.8 0.7-11.7-0.1-17.5-0.3-2.1-0.2-4.2 2.2-4.9s3.6 1 4.7 2.8c6.3 10.9 10 22.6 10.1 35.3z"/>
	<path class="st0" d="m40.9 369.1c8.1 4 16.5 5.2 24.9 6.6 33.6 5.5 67.5 6.7 101.5 5.4 34.4-1.3 68.7-4.5 102.2-13.4 3.6-0.9 7.1-2.2 10.6-3.6 2.5-1 4.1-2.6 2.6-5.6-0.7-1.5-0.4-3 0.9-3.9 1.4-1.1 3-0.8 4.5 0.1 6.5 4.1 7.6 12.6 2.4 18.2-4.3 4.6-10.1 6.9-15.8 9.1-17.6 6.8-36 10.3-54.6 12.9-33.4 4.7-67.1 5.9-100.8 5.3-25.5-0.5-51.1-1.2-76.3-6.2-8.4-1.6-16.6-3.7-24-8.4-3.1-2-5.7-4.4-7.3-7.8-3-6.6-0.9-12.5 5.6-16.2 7.9-4.4 16.7-6.2 25.5-7.5 9.5-1.4 19-2.2 28.6-2.6 2.3-0.1 4.6 0 4.9 2.8 0.3 2.6-1.7 3.5-4 4-8.8 1.9-17.7 3.7-26.1 7.2-1.6 1-3.5 1.7-5.3 3.6z"/>
	<path class="st0" d="m78.4 251.3c8.7 2.6 17.2 2.9 25.7 3.5 23.2 1.6 46.4 1.2 69.5 0 22.2-1.2 44.4-2.7 66.1-7.9 2.3-0.6 4.5-0.6 5.5 1.8 1.1 2.5-0.9 3.9-2.7 5.1-12.9 8.6-27.4 13.4-42.4 17.1-25.3 6.3-51 7.5-76.9 7.3-19.6-0.1-39.1-1.2-58.1-6.4-6.6-1.8-13-4.2-17.9-9.2-6.3-6.3-5.5-14.4 1.9-19.4 7.5-5.1 16.2-6.6 24.9-8.1 12-2 24.1-2.7 36.2-2.7 2.3 0 4.5 0.3 4.8 3 0.2 2.5-1.8 3.3-3.9 3.7-8.9 2.1-17.9 4.3-26.3 8-2.3 1-4.7 1.7-6.4 4.2z"/>
	<path class="st0" d="m176.8 244.5c0.2-0.5 0.7-1.8 1.2-3 2.4-5.5 4-11.3 4.8-17.2 0.7-4.6-0.8-8.6-3.6-12.2-4.9-6.3-10.1-12.4-13.8-19.5-5.5-10.6-7.9-21.8-6.9-33.6 0.8-9.5 6.4-16.8 12.8-23.4 11.7-12 26-20.3 40.6-28 7.5-4 15.3-7.4 23.2-10.7 2.2-0.9 4.4-1.9 5.9 0.9 1.4 2.6-0.5 3.9-2.2 5.3-11.5 9.1-22.9 18.3-33.4 28.6-4.4 4.3-8.5 8.8-11.9 14-5.3 8.3-5.9 16.6-0.5 25.1 2.7 4.3 5.6 8.4 8.1 12.8 11 18.7 9.8 33.9-4.2 50.7-4.2 5-8.9 9.5-14.2 13.5-1.4 1-2.8 1.7-4.4 0.9-1.3-0.8-1.7-2-1.5-4.2z"/>
	<path class="st0" d="m156 335.9c14.4-0.5 29.1-3.4 43.9-6 2.7-0.5 4.9-0.2 7.1 1.3 5.5 3.5 11.1 6.8 16.7 10.2 1.7 1 3.6 1.9 3.5 4.4-0.1 2.6-2.2 3-4.1 3.8-18.6 7.5-37.9 11.1-57.9 12-20.7 0.9-41.2-0.6-61.3-5.8-5.6-1.4-10.8-3.6-15.3-7.4-8-6.8-7.3-16.7 1.9-21.7 4.7-2.6 9.9-3.8 15.4-3.7 3.4 0.1 4.8 2 3.1 4.9-1.4 2.7-0.1 2.7 1.8 3.2 8.4 2.3 17 3 25.6 3.8 6.4 0.6 12.6 0.6 19.6 1z"/>
	<path class="st0" d="m138.8 317.5c-18.1 0-35.9-1.8-52.9-8.1-3.5-1.3-6.8-3-9.8-5.3-5.9-4.7-5.9-11.1-0.2-15.9s12.9-6.2 19.7-8.2c1.7-0.5 3.2 0.2 4 1.9 0.8 1.8-0.1 3-1.4 4.1-1.6 1.2-4.9 1.8-4.2 4.1 0.7 2.2 4 2.2 6.3 2.6 20.6 3.6 41.3 3.4 62.1 1.9 16.8-1.3 33.3-4 49.6-7.8 2.1-0.5 3.6 0 5.2 1.1l14.1 9.9c1.6 1.1 2.9 2.5 2.4 4.6s-2.4 2.5-4 2.8c-18.6 4-37.2 7.7-56.1 9.9-11.7 1.3-23.2 2.5-34.8 2.4z"/>
	<path class="st0" d="m314.3 261.4c-0.4 13.7-7.1 22.8-16.6 30.2-14.2 10.9-30.6 16.9-47.8 21.1-2 0.5-3.8 0.4-4.8-1.6-1.1-2.3 0.3-3.7 2.1-5 10.8-7.6 21.1-15.7 30-25.6 3.6-4 6.8-8.2 9.1-13.1 3.5-7.8 1.3-15.1-5.9-19.7-7.7-4.9-16.3-6.2-25.1-7-2.2-0.2-4.1-0.5-4.6-3-0.5-2.6 1.6-3.5 3.4-4.3 9.6-4.2 19.4-7.2 30.1-6.6 11 0.7 19.3 5.6 24.6 15.3 3.4 6.4 5.1 13.2 5.5 19.3z"/>
</svg>
