<?xml version="1.0" encoding="utf-8"?>
<!-- Generator: Adobe Illustrator 22.0.0, SVG Export Plug-In . SVG Version: 6.00 Build 0)  -->
<svg version="1.1" id="Layer_1" xmlns="http://www.w3.org/2000/svg" xmlns:xlink="http://www.w3.org/1999/xlink" x="0px" y="0px"
	 viewBox="0 0 192.8 187.1" style="enable-background:new 0 0 192.8 187.1;" xml:space="preserve">
<style type="text/css">
	.st0{fill:#FFFFFF;}
</style>
<g>
	<path class="st0" d="M76.8,177.1c-20.3,0-40.6-0.2-61,0.1c-5.4,0.1-7.4-1-7.4-7c0.3-40.4,0.3-80.8,0-121.2c0-5.8,1.6-7.2,7.2-7.2
		c33.3,0.3,66.6,0,99.8,0.3c5.9,0.1,10-1.8,13.7-6.2c8.3-9.7,17.7-18.2,28.9-24.4c2.8-1.6,6.2-3.7,9.1-0.8c3.3,3.2,0.8,6.8-0.8,9.7
		c-4.8,8.4-10.9,16-17.9,22.6c-5.5,5.2-4,11.2-3.4,17c0.5,4.2,3.4,1.7,4.7,0.1c2.8-3.4,4.8-2.1,7.4,0.3
		c12.6,11.7,13.3,12.3,0.4,23.8c-10.2,9.1-14.1,18.9-13.2,32.5c1.1,18,0.1,36.1,0.4,54.1c0.1,4.9-1.2,6.5-6.3,6.4
		C117.9,176.9,97.4,177.1,76.8,177.1z M107.8,73.3c-0.3-1.7-1.3-2.9-3.1-3c-4.6-8,5.6-10.4,6.8-16.7c-29.2,0-57.8,0-86.5-0.1
		c-3.7,0-4.8,1.3-4.8,4.9c0.1,34,0.1,68,0,102.1c0,3.5,1.2,5,4.8,5c34.5-0.1,69,0,103.6,0c2.4,0,4.7-0.1,4.7-3.4
		c0-16.6,0-33.2,0-49.1c-5,4.3-10.2,8.2-14.8,12.8c-11.8,11.9-11.6,11.9-23.6,0c-3.2-3.2-2.8-5,0.1-8c10.3-10.5,19.7-22,30.7-31.6
		c8.8-7.7,8-16.3,6.1-26.4c-4.4,3.6-8.3,7.6-11.7,12C116.4,76.5,112.5,77.3,107.8,73.3z M145.8,63.4c-0.1-0.2-0.3-0.3-0.4-0.5
		c-0.2,0.1-0.3,0.3-0.5,0.4c0.2,0.2,0.4,0.3,0.6,0.5C145.6,63.7,145.7,63.5,145.8,63.4z"/>
	<path class="st0" d="M172.5,69.7c-3-2.8-5.2-4.8-7.3-6.9c-9.2-8.9-9.2-8.9-0.8-17.8c6.8-7.1,7.5-7.1,15.1,0.2
		c7.9,7.6,7.9,8.2,0.7,15.7C177.7,63.6,175.3,66.5,172.5,69.7z"/>
	<path class="st0" d="M104.7,70.4c1.9,0.1,2.8,1.2,3.1,3c-0.2,0.2-0.4,0.4-0.5,0.6C105.4,73.5,104.3,72.5,104.7,70.4L104.7,70.4z"/>
	<path class="st0" d="M145.8,63.4c-0.1,0.1-0.2,0.3-0.3,0.4c-0.2-0.2-0.4-0.3-0.6-0.5c0.2-0.1,0.3-0.3,0.5-0.4
		C145.5,63.1,145.6,63.2,145.8,63.4z"/>
	<path class="st0" d="M104.6,70.4c-0.3,2.1,0.8,3,2.7,3.5c1.5,1.7,2.9,3.4,4.7,5.5c-3.8,3.4-7.6,7-11.7,10.4
		c-7.6,6.2-15.5,11.7-17.9,22.4c-1.2,5.6-6.6,9-12.1,10.5c-7,1.9-13,5.2-18.2,10.6c-1.8-23.9,7.6-36,24.6-38
		c2.8-0.3,4.3-1.9,5.9-4.1c4.7-6.6,9.9-12.8,14.6-19.4C99.4,68.5,101.7,68.8,104.6,70.4z"/>
	<path class="st0" d="M73.9,154.2c4.6-9.4,9.2-18.8,14.4-29.2c5.4,5.2,10.4,9.9,16.2,15.3c-10.1,5.3-19.6,10.3-29.1,15.2
		C74.8,155.1,74.3,154.6,73.9,154.2z"/>
</g>
</svg>
