<?xml version="1.0" encoding="UTF-8"?>
<svg enable-background="new 0 0 197 189" version="1.1" viewBox="0 0 197 189" xml:space="preserve" xmlns="http://www.w3.org/2000/svg" xmlns:xlink="http://www.w3.org/1999/xlink">
<style type="text/css">
	.st0{display:none;}
	.st1{display:inline;}
	.st2{fill:none;stroke:#000000;stroke-miterlimit:10;}
	.st3{display:none;opacity:0.23;}
	.st4{display:none;opacity:0.28;}
	.st5{display:inline;fill:none;}
	.st6{display:inline;fill:#8A09D6;}
	.st7{display:inline;fill:#AB05CE;}
	.st8{display:inline;fill:#800A99;}
	.st9{display:inline;fill:#E040FB;}
	.st10{fill:#AA00FF;}
	.st11{fill:#D500F9;}
	.st12{fill:#E040FB;}
	.st13{display:inline;fill:url(#g);}
	.st14{display:inline;fill:url(#f);}
	.st15{display:inline;fill:url(#e);}
	.st16{display:inline;fill:url(#d);}
	.st17{display:inline;fill:url(#c);}
	.st18{display:inline;fill:url(#b);}
	.st19{display:inline;fill:url(#a);}
	.st20{display:none;fill:none;stroke:#000000;stroke-miterlimit:10;}
	.st21{fill:#212121;}
	.st22{fill:#2196F3;}
	.st23{fill:#FFFFFF;}
	.st24{display:inline;fill:#212121;}
	.st25{fill:#FFC107;}
	.st26{fill:#FF5722;}
	.st27{fill:#FFFEFD;}
</style>
<g class="st0">
		<image transform="matrix(.5 0 0 .5185 1.0076 0)" width="1920" height="1080" overflow="visible" xlink:href="8461.jpg">
	</image>
</g>
<g class="st0">
	<g class="st1">
		<rect class="st2" width="960" height="560"/>
	</g>
		<image transform="matrix(-.9004 0 0 -.9287 960 558.13)" width="1068" height="601" overflow="visible" xlink:href="546183-1068x601.jpg">
	</image>
</g>
	<g class="st3">
		<polygon class="st1" points="497.9 400.3 496.1 401.4 495.6 401.1 496.7 410.8 541.8 434.2"/>
	</g>
	<path class="st4" d="m518.8 406.8-0.6 0.3-0.5 0.1-0.4-0.4-0.7 7.4 8.7 6.8s16.6 13.1 16.6 13.2-4.2-5.8-4.2-5.8l-18.9-21.6z"/>
	<g class="st0">
		<polygon class="st5" points="-138 544.2 -130.4 539 -130 537.1 -137.7 541.3"/>
		<polygon class="st5" points="-128.1 526.1 -127.8 524.1 -147.6 510.4 -147.7 504 -167.4 485.8 -163.6 508.9"/>
		<polygon class="st5" points="-127.3 521.4 -127.2 521 -133.7 514.1 -133 510.2 -145.4 493 -145.7 502.8"/>
		<polygon class="st5" points="-152.7 544.8 -129.7 535.2 -129.5 534.2 -151.6 541.4"/>
		<polygon class="st5" points="-126.6 517.2 -125.8 512.9 -130.3 502.9 -131.8 509.2"/>
		<polygon class="st5" points="-152.7 539.7 -129.4 533.5 -129.1 531.4 -168.2 535.7 -179.6 556.2 -154.9 545.7"/>
		<polygon class="st5" points="-133 513.9 -127.1 520.5 -126.8 518.6 -132.2 511.1"/>
		<polygon class="st5" points="-146.1 509.1 -127.7 523.4 -127.5 522.4 -145.8 505.6"/>
		<polygon class="st5" points="-130.6 540.4 -138.2 546.1 -138.8 552.6 -131.3 544.7"/>
		<polygon class="st5" points="-138.4 540.9 -130 536.6 -129.9 536.2 -153.5 547.4 -156.4 556.8 -139 544.8"/>
		<polygon class="st6" points="-145.9 505.6 -127.5 522.4 -127.3 521.4 -145.7 502.8"/>
		<polygon class="st6" points="-147.8 500.9 -168.4 480 -167.4 485.8 -147.8 504"/>
		<polygon class="st6" points="-163.6 508.9 -167.4 485.8 -171.1 482.4 -165 511 -128.2 526.8 -128.1 526.1"/>
		<polygon class="st7" points="-132.3 511.1 -126.8 518.6 -126.6 517.2 -131.8 509.2"/>
		<polygon class="st7" points="-132.6 508.2 -145.2 488.5 -145.4 493 -133.1 510.2"/>
		<polygon class="st7" points="-147.6 510.4 -127.8 524.1 -127.7 523.4 -146.1 509.1 -146 505.5 -145.9 502.8 -145.4 493 -147.8 489.7 -147.8 500.9 -147.7 504"/>
		<polygon class="st8" points="-125.6 511.6 -129.9 501.2 -130.2 502.9 -125.8 512.9"/>
		<polygon class="st8" points="-133.7 514.1 -127.2 521 -127.1 520.5 -133 513.9 -132.4 511.1 -131.9 509.2 -130.4 502.9 -131.2 501.2 -132.6 508.2 -133 510.2"/>
		<polygon class="st6" points="-179.6 556.2 -182.4 561.3 -156 548.6 -155 545.7"/>
		<polygon class="st6" points="-153.5 547.4 -129.9 536.2 -129.7 535.2 -152.6 544.9"/>
		<polygon class="st6" points="-129.1 531.4 -128.9 530.8 -168.9 533.3 -184.2 558.2 -179.6 556.2 -168.2 535.7"/>
		<polygon class="st7" points="-138.2 546.1 -130.6 540.4 -130.4 539 -138 544.2"/>
		<polygon class="st7" points="-156.5 556.8 -157.8 561.2 -139.4 546.9 -139.1 544.8"/>
		<polygon class="st7" points="-152.9 544.8 -151.7 541.4 -129.5 534.2 -129.4 533.5 -152.7 539.7 -154.9 545.7 -156 548.6 -159.8 559.1 -156.5 556.8 -153.6 547.4"/>
		<polygon class="st8" points="-138.9 552.6 -139 554.4 -131.6 546 -131.3 544.7"/>
		<polygon class="st8" points="-138.2 544.2 -137.7 541.3 -130 537.1 -130 536.6 -138.4 540.9 -139 544.8 -139.3 546.9 -140.3 553.9 -139 552.5 -138.4 546.1"/>
	</g>
	<g class="st0">
		<polygon class="st9" points="-126.9 523.4 -125.4 514.6 -132.2 497.4 -134.6 507.2 -136 512.9"/>
		<g class="st1">
			<path class="st10" d="m-151.9 507.1c0.1-2.6 0.3-5.1 0.4-7.7l-27.3-27.7 5.6 35.1 45.4 22.1 0.5-2.7-24.6-19.1z"/>
			<path class="st11" d="m-126.9 523.4-9.1-10.5 1.4-5.7c-0.1-0.2-0.3-0.4-0.4-0.6l-15.6-24.6c-0.3 5.8-0.6 11.6-0.9 17.5l24.5 24.9 0.1-1z"/>
			<path class="st10" d="m-127.4 526.2 0.3-2-24.5-24.9c-0.1 2.6-0.3 5.1-0.4 7.7l24.6 19.2z"/>
			<path class="st11" d="m-127.4 526.2 0.3-2-24.5-24.9c-0.1 2.6-0.3 5.1-0.4 7.7l24.6 19.2z"/>
				<path class="st10" d="m-128.3 531.6 0.5-2.7-50.2 5.5-17.1 31.2 35-16.9c0.7-2.5 1.5-4.9 2.2-7.4l29.6-9.7z"/>
				<path class="st11" d="m-128.8 534.5 0.2-0.9-31.4 15.1c-1.7 5.6-3.4 11.2-5.1 16.7 7.7-6 15.3-11.9 23-17.9 0.2-0.2 0.4-0.3 0.6-0.5l0.6-5.8 12.1-6.7z"/>
				<path class="st10" d="m-128.3 531.6-29.6 9.8c-0.7 2.5-1.5 4.9-2.2 7.4l31.4-15.1 0.4-2.1z"/>
				<path class="st11" d="m-128.3 531.6-29.6 9.8c-0.7 2.5-1.5 4.9-2.2 7.4l31.4-15.1 0.4-2.1z"/>
				<polygon class="st12" points="-128.8 534.5 -140.9 541.3 -141.5 547.1 -142.6 557.2 -130.3 543.3"/>
		</g>
	</g>
	<g class="st0">
		<polygon class="st5" points="-53.7 570.7 -56.9 566.7 -56.8 565.7 -53.4 569.2"/>
		<polygon class="st5" points="-56 559.6 -55.8 558.5 -43.2 554.5 -42.1 551.2 -28.8 544.8 -34.6 556.4"/>
		<polygon class="st5" points="-55.6 557 -55.6 556.8 -51.1 554.2 -50.8 552.1 -41.6 545.1 -43 550.3"/>
		<polygon class="st5" points="-46.1 573.4 -56.6 564.6 -56.5 564.1 -46.1 571.5"/>
		<polygon class="st5" points="-55.3 554.7 -55 552.3 -51.1 547.8 -51.3 551.4"/>
		<polygon class="st5" points="-45.3 570.7 -56.5 563.7 -56.3 562.6 -36.5 571.1 -33.9 583.7 -45.1 574.3"/>
		<polygon class="st5" points="-51.4 554 -55.6 556.5 -55.4 555.5 -51.4 552.4"/>
		<polygon class="st5" points="-43.8 553.6 -55.8 558.1 -55.7 557.6 -43.4 551.7"/>
		<polygon class="st5" points="-57 567.5 -53.9 571.8 -54.6 575.2 -57.3 569.9"/>
		<polygon class="st5" points="-53 569.1 -56.7 565.4 -56.7 565.2 -46.1 574.9 -46.1 580.3 -53.3 571.2"/>
		<polygon class="st6" points="-43.3 551.7 -55.7 557.6 -55.6 557 -43 550.3"/>
		<polygon class="st6" points="-41.6 549.6 -27.4 542 -28.8 544.9 -42.1 551.2"/>
		<polygon class="st6" points="-34.6 556.4 -28.9 544.8 -26.3 543.7 -34.2 557.7 -56 560 -56 559.6"/>
		<polygon class="st7" points="-51.3 552.4 -55.4 555.5 -55.3 554.7 -51.3 551.4"/>
		<polygon class="st7" points="-50.7 550.9 -40.9 542.6 -41.5 545.1 -50.8 552.1"/>
		<polygon class="st7" points="-43.2 554.5 -55.8 558.5 -55.8 558.1 -43.8 553.6 -43.3 551.7 -42.9 550.3 -41.5 545.1 -39.7 543.7 -41.6 549.6 -42.1 551.2"/>
		<polygon class="st8" points="-54.9 551.6 -51 546.8 -51.1 547.8 -55 552.3"/>
		<polygon class="st8" points="-51.1 554.2 -55.6 556.8 -55.6 556.5 -51.4 554 -51.3 552.4 -51.2 551.4 -51 547.8 -50.3 547.1 -50.7 550.9 -50.8 552.1"/>
		<polygon class="st6" points="-33.8 583.7 -33.2 586.9 -45 575.9 -45 574.3"/>
		<polygon class="st6" points="-46.1 574.9 -56.7 565.2 -56.6 564.6 -46.1 573.4"/>
		<polygon class="st6" points="-56.3 562.6 -56.3 562.2 -35.8 570 -31.7 585.5 -33.8 583.7 -36.5 571.1"/>
		<polygon class="st7" points="-53.9 571.8 -57 567.5 -56.9 566.7 -53.7 570.7"/>
		<polygon class="st7" points="-46.1 580.3 -46.1 582.8 -53.4 572.3 -53.2 571.2"/>
		<polygon class="st7" points="-46 573.4 -46.1 571.5 -56.5 564.1 -56.5 563.7 -45.3 570.7 -45.1 574.3 -45 575.9 -44.7 582.1 -46.1 580.3 -46 574.9"/>
		<polygon class="st8" points="-54.6 575.2 -54.8 576.2 -57.4 570.6 -57.3 569.9"/>
		<polygon class="st8" points="-53.6 570.7 -53.4 569.2 -56.8 565.7 -56.7 565.4 -53 569.1 -53.3 571.2 -53.5 572.3 -54.1 576.2 -54.5 575.3 -53.8 571.8"/>
	</g>
	<g class="st0">
		<linearGradient id="g" x1="-110.69" x2="-115.69" y1="539.53" y2="569.69" gradientUnits="userSpaceOnUse">
			<stop stop-color="#E040FB" offset="0"/>
			<stop stop-color="#AB00F9" offset="1"/>
		</linearGradient>
		<path class="st13" d="m-112.9 553.4c1.4 0 2.4 0.3 3 0.9 0.4 0.5 0.7 1 0.7 1.8 0 0.2 0 0.5-0.1 0.8l-0.3 1.4c-0.1 0.8-0.4 1.4-0.8 1.9s-0.8 0.8-1.2 1l1.7 5.3h-3.7l-1.5-4.9h-1.1l-0.7 4.9h-3.5l2.3-13.2h5.2zm-1.1 2.9h-1.4l-0.5 3.2h1.3c0.6 0 1.1-0.2 1.4-0.5s0.4-0.7 0.4-1.2c0-1.1-0.4-1.5-1.2-1.5z"/>
		<linearGradient id="f" x1="-99.722" x2="-104.72" y1="541.35" y2="571.51" gradientUnits="userSpaceOnUse">
			<stop stop-color="#E040FB" offset="0"/>
			<stop stop-color="#AB00F9" offset="1"/>
		</linearGradient>
		<path class="st14" d="m-102 566.6 0.1-2.9h-3.1l-0.9 2.9h-3.5l4.7-13.2h6l0.1 13.2h-3.4zm-0.7-10-1.4 4.6h2.4l0.2-4.6h-1.2z"/>
		<linearGradient id="e" x1="-88.756" x2="-93.758" y1="543.17" y2="573.32" gradientUnits="userSpaceOnUse">
			<stop stop-color="#E040FB" offset="0"/>
			<stop stop-color="#AB00F9" offset="1"/>
		</linearGradient>
		<path class="st15" d="m-84.8 556.3h-4.5l-1.8 10.3h-3.3l1.8-10.3h-4.5l0.5-2.9h12.3l-0.5 2.9z"/>
		<linearGradient id="d" x1="-76.876" x2="-81.879" y1="545.14" y2="575.3" gradientUnits="userSpaceOnUse">
			<stop stop-color="#E040FB" offset="0"/>
			<stop stop-color="#AB00F9" offset="1"/>
		</linearGradient>
		<path class="st16" d="m-75.9 566.6h-9.2l2.3-13.2h9.2l-0.5 2.9h-5.9l-0.4 2.5h4.9l-0.5 2.9h-4.9l-0.4 2.1h5.9l-0.5 2.8z"/>
		<linearGradient id="c" x1="-65.892" x2="-70.895" y1="546.96" y2="577.12" gradientUnits="userSpaceOnUse">
			<stop stop-color="#E040FB" offset="0"/>
			<stop stop-color="#AB00F9" offset="1"/>
		</linearGradient>
		<path class="st17" d="m-64.6 566.6h-9.2l2.3-13.2h9.2l-0.5 2.9h-5.9l-0.4 2.5h4.9l-0.5 2.9h-4.9l-0.4 2.1h5.9l-0.5 2.8z"/>
		<linearGradient id="b" x1="-54.294" x2="-59.297" y1="548.89" y2="579.04" gradientUnits="userSpaceOnUse">
			<stop stop-color="#E040FB" offset="0"/>
			<stop stop-color="#AB00F9" offset="1"/>
		</linearGradient>
		<path class="st18" d="m-49.8 553.4-4.2 6.6 1.9 6.5h-3.5l-1.4-4.8h-1.4l-0.9 4.8h-3.3l2.3-13.2h3.3l-1 5.5h1.2l3.5-5.5h3.5z"/>
	</g>
	<g class="st0">
		<linearGradient id="a" x1="-104.42" x2="-112.48" y1="511.15" y2="570.19" gradientUnits="userSpaceOnUse">
			<stop stop-color="#E040FB" offset="0"/>
			<stop stop-color="#AB00F9" offset="1"/>
		</linearGradient>
		<path class="st19" d="m-107.4 550.8h-9.1l-3 16.8h-13.8l9.8-55.3h23.4c5.8 0 9.9 1.3 12.4 4 1.8 2 2.7 4.7 2.7 7.8 0 1.1-0.1 2.2-0.3 3.4l-1.5 8.7c-0.8 4.3-3 7.7-6.8 10.5-3.9 2.7-8.4 4.1-13.8 4.1zm2.4-26.5h-6.9l-2.5 14.5h6.8c4.2 0 6.6-1.9 7.3-5.6l0.5-3.1c0.1-0.5 0.2-1.1 0.2-1.8 0-0.8-0.4-1.6-1.2-2.5-0.8-1.1-2.2-1.5-4.2-1.5z"/>
	</g>
	<path class="st20" d="m511.7 191.5v0.1"/>
	<path class="st20" d="m532.4 229.4"/>
	<g class="st0">
		<g class="st1">
				<image transform="translate(137 311)" width="196" height="195" opacity=".75" overflow="visible" xlink:href="4E7FB9A2.png">
			</image>
				<path class="st21" d="m229.8 492c-48.1 0-87.2-39.1-87.2-87.2s39.1-87.2 87.2-87.2 87.2 39.1 87.2 87.2-39.1 87.2-87.2 87.2z"/>
				<path class="st22" d="m229.8 318.5c47.6 0 86.2 38.6 86.2 86.2s-38.6 86.3-86.2 86.3-86.2-38.6-86.2-86.2 38.5-86.3 86.2-86.3m0-2c-48.7 0-88.2 39.6-88.2 88.2s39.6 88.2 88.2 88.2 88.2-39.6 88.2-88.2-39.6-88.2-88.2-88.2z"/>
		</g>
		<g class="st1">
			<path class="st23" d="m251.1 400.2c0.8 1.3-0.3 3-0.8 4.2-0.6 1.1-1.4 2.2-2 3.2-3 3.1-7.5 4.7-12 4.1-0.4-0.1-0.7-0.1-1.1-0.2-4.7-1.1-9-4-11.5-7.9-4.1 6.3-9.3 12.4-12.9 19.2-0.6 0.9-1.1 1.8-1.6 2.5s-0.8 1.3-1.1 1.6c-0.5 0.8-1.1 1.5-1.1 1.5s-0.1 0.2-0.3 0.3c-1.4 1.7-2.9 3.2-4.5 4.6-1.8 1.3-2.4 1.8-3 2.3-3.6 2.9-7.4 5.2-11.4 7.1-9 4.3-18.9 6.2-29 6.3 14.6-0.5 35.5-5.3 36.4-23.1-0.1-1.1-0.4-2.1-0.7-3.2-1.1-3-3.1-5.7-6-7.3-5.5-2.8-11.3-0.7-15.6 3.3v-0.6c0.6-5.3 7.1-8.5 12.2-8.1s9.7 3.3 12.9 7.3c0.1 0.1 0.1 0.2 0.2 0.3 1-1.6 1.7-2.9 2.3-4 4.7-10 11.6-18.7 19.9-26.4 0.9-0.8 1.8-1.6 2.8-2.4 0.7-0.5 1.5-1 2.3-1.4 3.9-2.4 8.1-4.7 13.9-5.9 0 0 1.9-0.4 5.1-0.7 1-0.1 2.2-0.2 3.5-0.2 4.6-0.2 9.5 0.2 13.9 0.6 1.6 0.2 3.8 0.4 4.2 0.5-5.7 1-8.2 0.3-15.1 0.8v0.1c-0.3 0-0.7 0.1-1 0.1h-0.1c-1.8 0.2-3.8 0.4-6.2 0.7-1.2-0.1-2.3 0.1-3.4 0.2-3.1 0.5-6 1.6-8.5 3.6-1 0.8-1.9 1.8-2.7 2.9-0.3 0.4-0.5 0.7-0.7 1.1 0 0.1-0.1 0.2-0.1 0.2-0.1 0.1-0.1 0.3-0.2 0.4s-0.1 0.3-0.2 0.4v0.1c-3.4 6.8 0.4 16.8 7.9 19 1.4 0.4 2.8 0.6 4.2 0.5s2.8-0.5 4.1-1.1c0.9-0.4 1.7-0.9 2.5-1.5 1.8-1 3.8-3.2 4.5-5z"/>
			<path class="st23" d="m296.7 374.5c-0.3 0.2-1.4 1-2.8 1.9-2.4 1.5-6.3 2.3-9.6 2.6-1.1 0.1-2.2 0.2-3.1 0.2-5.2 0.1-10-0.6-15.1-1.4 3.4 0 6.8-1.5 9.2-4.5 0.8-1 1.4-2.2 1.7-3.5 0-0.1 0.1-0.3 0.1-0.4s0-0.2 0.1-0.3c0.6-2.9-0.1-5.9-1.7-8.3 4.1 0.3 6.8 0.6 10.1 1.7 5.3 1.8 7.5 3.1 8.7 4.5 1.2 1.5 3 3.8 3.1 4.3 0 0.1 0 0.3-0.1 0.5-0.1 1-0.3 1.8-0.6 2.7z"/>
		</g>
		<g class="st1">
			<path class="st22" d="m297.5 371.2c-0.1-0.5-1.9-2.8-3.1-4.3s-3.3-2.8-8.7-4.5c-3.3-1.1-6-1.3-10.1-1.7h-0.4c-4.3-0.4-6.8 0-8.4-0.3-1.7-0.2-5.9-0.3-10.4-2.9-2.5-1.3-5.2-2.9-7.8-5.1l-0.4-0.4c-6.5-6-9.3-13.9-8.5-14.5 0.6-0.4 2.6 3.1 7.8 6 3.2 1.7 6.2 2.5 9.6 3.1h0.1c0.7 0.1 1.4 0.3 2.2 0.3 2.4 0.2 4.8 0.8 10.8 1 8.6 0.5 8.1 0.1 10.5 0.5 3.1 0.6 9.8 1.8 13.9 7.4 4.1 5.4 3.4 11.8 3.2 14.4-0.2 0.3-0.3 0.6-0.3 1z"/>
			<path class="st22" d="m296.7 374.5c-1 3.3-2.4 5.7-3.2 6.8-0.5 0.7-1.7 2.5-3.9 4.4-0.9 0.8-2 1.7-3.2 2.4s-2.6 1.5-4.1 2.1c-7 2.2-14.4-0.2-21.1-2.5-5.3-2-10-6.4-15.8-7.1-1.2-0.2-2.5-0.2-3.7-0.1-3.6 0.3-7.2 1.8-10 4.7-0.8 0.9-1.4 1.9-1.9 2.9-0.4 0.9-0.8 1.8-1 2.7-2.1 6.6 2.2 14.4 8.9 15.1 0.9 0.1 1.8 0.1 2.6 0 1.7-0.2 3.4-0.9 4.6-1.9 0.6-0.5 1.2-1.2 1.6-1.9 2.7-3.7-0.3-7.4-3-10.3-0.6-0.5-0.4-1.6 0.4-1.8 3.2-0.8 6 0.6 7.6 3.3 1.8 3.8 1.5 8.3-0.7 12-0.4 0.7-0.9 1.5-1.5 2.1-1.1 1.3-2.5 2.4-4.1 3.2-1.9 0.8-4 1.4-6.1 1.5-1 0.1-2.1 0.1-3.1-0.1-1.9 0.2-3.5-0.9-5.3-1.7 1.6 1.1 3.5 1.2 5.5 1.5 0.8 0.1 1.7 0.1 2.5 0 3.4-0.3 6.7-1.7 9-4 0.9-0.9 1.6-1.9 2.1-3 0-1.3 1.4-2.5 0.9-3.7-0.9 2.1-2.6 3.3-4.2 4.3-0.8 0.6-1.7 1.1-2.6 1.5-1.4 0.7-3 1.1-4.6 1.1-0.8 0-1.6 0-2.3-0.1-9-1-13.3-11.9-9.3-19.5 0.5-1.1 1.2-2.2 1.9-3.1 2.3-2.9 5.5-4.6 9.1-5.5 1.2-0.3 2.6-0.7 3.8-0.8 3.9-0.6 7-0.4 11.3-1 7.7-1 24.4 0.7 27.3 0.9 0 0 1 0 3.5-0.2 3.3-0.3 6.8-0.7 9.1-2.3 1.6-0.9 2.8-1.7 3-1.9z"/>
			<path class="st22" d="m224 403.9c0 0.1-0.3-0.3-0.3-0.3-4.1 6.3-9.3 12.4-12.9 19.2-0.6 0.9-1.1 1.8-1.6 2.5s-0.8 1.3-1.1 1.6c-0.5 0.8-1.1 1.5-1.1 1.5s-0.1 0.2-0.3 0.3c-1.4 1.7-2.9 3.2-4.5 4.6-1.8 1.3-2.4 1.8-3 2.3-3.6 2.9-7.4 5.2-11.4 7.1 9.9-7.7 15.5-13.9 18.8-18.6 0.5-0.7 0.9-1.3 1.3-1.9 5-8.4 10.5-16.3 15.5-24.7 0.4 1.6-0.4 3.3 0.2 5 0.3 0.4 0.3 0.9 0.4 1.4z"/>
			<path class="st22" d="m197.4 421.4c-0.6-1.4-1.9-3.7-4.2-5.9-1.6-1.5-4.2-3.9-8-4.1-3.2-0.2-5.6 1.4-7.4 2.5-2 1.3-3.6 2.8-4.7 4.3 0.6-5.3 7.1-8.5 12.2-8.1s9.7 3.3 12.9 7.3c-0.2 1.3-0.5 2.6-0.8 4z"/>
		</g>
	</g>
			<path class="st21" d="m95 180c-48.1 0-87.2-39.1-87.2-87.2 0-48.2 39.1-87.3 87.2-87.3s87.2 39.1 87.2 87.2c0.1 48.2-39 87.3-87.2 87.3z"/>
			<path class="st22" d="M95,6.5c47.6,0,86.2,38.6,86.2,86.2S142.7,179,95,179S8.8,140.4,8.8,92.8S47.4,6.5,95,6.5 M95,4.5     C46.4,4.5,6.8,44.1,6.8,92.8S46.4,181,95,181s88.2-39.6,88.2-88.2S143.7,4.5,95,4.5L95,4.5z"/>
		<g class="st0">
			<path class="st24" d="m113.4 96.2c0.8 1.3-0.3 3-0.8 4.2-0.6 1.1-1.4 2.2-2 3.2-3 3.1-7.5 4.7-12 4.1-0.4-0.1-0.7-0.1-1.1-0.2-4.7-1.1-9-4-11.5-7.9-4.1 6.3-9.3 12.4-12.9 19.2-0.6 0.9-1.1 1.8-1.6 2.5s-0.8 1.3-1.1 1.6c-0.5 0.8-1.1 1.5-1.1 1.5s-0.1 0.2-0.3 0.3c-1.4 1.7-2.9 3.2-4.5 4.6-1.8 1.3-2.4 1.8-3 2.3-3.6 2.9-7.4 5.2-11.4 7.1-9 4.3-18.9 6.2-29 6.3 14.6-0.5 35.5-5.3 36.4-23.1-0.1-1.1-0.4-2.1-0.7-3.2-1.1-3-3.1-5.7-6-7.3-5.5-2.8-11.3-0.7-15.6 3.3v-0.6c0.6-5.3 7.1-8.5 12.2-8.1s9.7 3.3 12.9 7.3c0.1 0.1 0.1 0.2 0.2 0.3 1-1.6 1.7-2.9 2.3-4 4.7-10 11.6-18.7 19.9-26.4 0.9-0.8 1.8-1.6 2.8-2.4 0.7-0.5 1.5-1 2.3-1.4 3.9-2.4 8.1-4.7 13.9-5.9 0 0 1.9-0.4 5.1-0.7 1-0.1 2.2-0.2 3.5-0.2 4.6-0.2 9.5 0.2 13.9 0.6 1.6 0.2 3.8 0.4 4.2 0.5-5.7 1-8.2 0.3-15.1 0.8v0.1c-0.3 0-0.7 0.1-1 0.1h-0.1c-1.8 0.2-3.8 0.4-6.2 0.7-1.2-0.1-2.3 0.1-3.4 0.2-3.1 0.5-6 1.6-8.5 3.6-1 0.8-1.9 1.8-2.7 2.9-0.3 0.4-0.5 0.7-0.7 1.1 0 0.1-0.1 0.2-0.1 0.2-0.1 0.1-0.1 0.3-0.2 0.4s-0.1 0.3-0.2 0.4v0.1c-3.4 6.8 0.4 16.8 7.9 19 1.4 0.4 2.8 0.6 4.2 0.5s2.8-0.5 4.1-1.1c0.9-0.4 1.7-0.9 2.5-1.5 1.7-1 3.7-3.2 4.5-5z"/>
			<path class="st24" d="m159 70.5c-0.3 0.2-1.4 1-2.8 1.9-2.4 1.5-6.3 2.3-9.6 2.6-1.1 0.1-2.2 0.2-3.1 0.2-5.2 0.1-10-0.6-15.1-1.4 3.4 0 6.8-1.5 9.2-4.5 0.8-1 1.4-2.2 1.7-3.5 0-0.1 0.1-0.3 0.1-0.4s0-0.2 0.1-0.3c0.6-2.9-0.1-5.9-1.7-8.3 4.1 0.3 6.8 0.6 10.1 1.7 5.3 1.8 7.5 3.1 8.7 4.5 1.2 1.5 3 3.8 3.1 4.3 0 0.1 0 0.3-0.1 0.5-0.1 1-0.3 1.8-0.6 2.7z"/>
		</g>
			<path class="st22" d="m159.7 67.2c-0.1-0.5-1.9-2.8-3.1-4.3s-3.3-2.8-8.7-4.5c-3.3-1.1-6-1.3-10.1-1.7h-0.4c-4.3-0.4-6.8 0-8.4-0.3-1.7-0.2-5.9-0.3-10.4-2.9-2.5-1.3-5.2-2.9-7.8-5.1l-0.4-0.4c-6.5-6-9.3-13.9-8.5-14.5 0.6-0.4 2.6 3.1 7.8 6 3.2 1.7 6.2 2.5 9.6 3.1h0.1c0.7 0.1 1.4 0.3 2.2 0.3 2.4 0.2 4.8 0.8 10.8 1 8.6 0.5 8.1 0.1 10.5 0.5 3.1 0.6 9.8 1.8 13.9 7.4 4.1 5.4 3.4 11.8 3.2 14.4-0.2 0.3-0.2 0.6-0.3 1z"/>
			<path class="st22" d="m159 70.5c-1 3.3-2.4 5.7-3.2 6.8-0.5 0.7-1.7 2.5-3.9 4.4-0.9 0.8-2 1.7-3.2 2.4s-2.6 1.5-4.1 2.1c-7 2.2-14.4-0.2-21.1-2.5-5.3-2-10-6.4-15.8-7.1-1.2-0.2-2.5-0.2-3.7-0.1-3.6 0.3-7.2 1.8-10 4.7-0.8 0.9-1.4 1.9-1.9 2.9-0.4 0.9-0.8 1.8-1 2.7-2.1 6.6 2.2 14.4 8.9 15.1 0.9 0.1 1.8 0.1 2.6 0 1.7-0.2 3.4-0.9 4.6-1.9 0.6-0.5 1.2-1.2 1.6-1.9 2.7-3.7-0.3-7.4-3-10.3-0.6-0.5-0.4-1.6 0.4-1.8 3.2-0.8 6 0.6 7.6 3.3 1.8 3.8 1.5 8.3-0.7 12-0.4 0.7-0.9 1.5-1.5 2.1-1.1 1.3-2.5 2.4-4.1 3.2-1.9 0.8-4 1.4-6.1 1.5-1 0.1-2.1 0.1-3.1-0.1-1.9 0.2-3.5-0.9-5.3-1.7 1.6 1.1 3.5 1.2 5.5 1.5 0.8 0.1 1.7 0.1 2.5 0 3.4-0.3 6.7-1.7 9-4 0.9-0.9 1.6-1.9 2.1-3 0-1.3 1.4-2.5 0.9-3.7-0.9 2.1-2.6 3.3-4.2 4.3-0.8 0.6-1.7 1.1-2.6 1.5-1.4 0.7-3 1.1-4.6 1.1-0.8 0-1.6 0-2.3-0.1-9-1-13.3-11.9-9.3-19.5 0.5-1.1 1.2-2.2 1.9-3.1 2.3-2.9 5.5-4.6 9.1-5.5 1.2-0.3 2.6-0.7 3.8-0.8 3.9-0.6 7-0.4 11.3-1 7.7-1 24.4 0.7 27.3 0.9 0 0 1 0 3.5-0.2 3.3-0.3 6.8-0.7 9.1-2.3 1.6-0.9 2.8-1.7 3-1.9z"/>
			<path class="st22" d="m86.3 99.9c0 0.1-0.3-0.3-0.3-0.3-4.1 6.3-9.3 12.4-12.9 19.2-0.6 0.9-1.1 1.8-1.6 2.5s-0.8 1.3-1.1 1.6c-0.5 0.8-1.1 1.5-1.1 1.5s-0.1 0.2-0.3 0.3c-1.4 1.7-2.9 3.2-4.5 4.6-1.8 1.3-2.4 1.8-3 2.3-3.6 2.9-7.4 5.2-11.4 7.1 9.9-7.7 15.5-13.9 18.8-18.6 0.5-0.7 0.9-1.3 1.3-1.9 5-8.4 10.5-16.3 15.5-24.7 0.4 1.6-0.4 3.3 0.2 5 0.2 0.4 0.3 0.9 0.4 1.4z"/>
			<path class="st22" d="m59.7 117.4c-0.6-1.4-1.9-3.7-4.2-5.9-1.6-1.5-4.2-3.9-8-4.1-3.2-0.2-5.6 1.4-7.4 2.5-2 1.3-3.6 2.8-4.7 4.3 0.6-5.3 7.1-8.5 12.2-8.1s9.7 3.3 12.9 7.3c-0.2 1.3-0.5 2.6-0.8 4z"/>
	<g class="st0">
		<g class="st1">
				<image transform="translate(390 298)" width="194" height="193" opacity=".75" overflow="visible" xlink:href="4E7FB9A6.png">
			</image>
				<circle class="st23" cx="482" cy="390.8" r="86.2"/>
		</g>
		<g class="st1">
			<path class="st21" d="m503.4 386.2c0.8 1.3-0.3 3-0.8 4.2-0.6 1.1-1.4 2.2-2 3.2-3 3.1-7.5 4.7-12 4.1-0.4-0.1-0.7-0.1-1.1-0.2-4.7-1.1-9-4-11.5-7.9-4.1 6.3-9.3 12.4-12.9 19.2-0.6 0.9-1.1 1.8-1.6 2.5s-0.8 1.3-1.1 1.6c-0.5 0.8-1.1 1.5-1.1 1.5s-0.1 0.2-0.3 0.3c-1.4 1.7-2.9 3.2-4.5 4.6-1.8 1.3-2.4 1.8-3 2.3-3.6 2.9-7.4 5.2-11.4 7.1-9 4.3-18.9 6.2-29 6.3 14.6-0.5 35.5-5.3 36.4-23.1-0.1-1.1-0.4-2.1-0.7-3.2-1.1-3-3.1-5.7-6-7.3-5.5-2.8-11.3-0.7-15.6 3.3v-0.6c0.6-5.3 7.1-8.5 12.2-8.1s9.7 3.3 12.9 7.3c0.1 0.1 0.1 0.2 0.2 0.3 1-1.6 1.7-2.9 2.3-4 4.7-10 11.6-18.7 19.9-26.4 0.9-0.8 1.8-1.6 2.8-2.4 0.7-0.5 1.5-1 2.3-1.4 3.9-2.4 8.1-4.7 13.9-5.9 0 0 1.9-0.4 5.1-0.7 1-0.1 2.2-0.2 3.5-0.2 4.6-0.2 9.5 0.2 13.9 0.6 1.6 0.2 3.8 0.4 4.2 0.5-5.7 1-8.2 0.3-15.1 0.8v0.1c-0.3 0-0.7 0.1-1 0.1h-0.1c-1.8 0.2-3.8 0.4-6.2 0.7-1.2-0.1-2.3 0.1-3.4 0.2-3.1 0.5-6 1.6-8.5 3.6-1 0.8-1.9 1.8-2.7 2.9-0.3 0.4-0.5 0.7-0.7 1.1 0 0.1-0.1 0.2-0.1 0.2-0.1 0.1-0.1 0.3-0.2 0.4s-0.1 0.3-0.2 0.4v0.1c-3.4 6.8 0.4 16.8 7.9 19 1.4 0.4 2.8 0.6 4.2 0.5s2.8-0.5 4.1-1.1c0.9-0.4 1.7-0.9 2.5-1.5 1.7-1 3.7-3.2 4.5-5z"/>
			<path class="st21" d="m549 360.5c-0.3 0.2-1.4 1-2.8 1.9-2.4 1.5-6.3 2.3-9.6 2.6-1.1 0.1-2.2 0.2-3.1 0.2-5.2 0.1-10-0.6-15.1-1.4 3.4 0 6.8-1.5 9.2-4.5 0.8-1 1.4-2.2 1.7-3.5 0-0.1 0.1-0.3 0.1-0.4s0-0.2 0.1-0.3c0.6-2.9-0.1-5.9-1.7-8.3 4.1 0.3 6.8 0.6 10.1 1.7 5.3 1.8 7.5 3.1 8.7 4.5 1.2 1.5 3 3.8 3.1 4.3 0 0.1 0 0.3-0.1 0.5-0.1 1-0.4 1.8-0.6 2.7z"/>
		</g>
		<g class="st1">
			<path class="st22" d="m549.7 357.2c-0.1-0.5-1.9-2.8-3.1-4.3s-3.3-2.8-8.7-4.5c-3.3-1.1-6-1.3-10.1-1.7h-0.4c-4.3-0.4-6.8 0-8.4-0.3-1.7-0.2-5.9-0.3-10.4-2.9-2.5-1.3-5.2-2.9-7.8-5.1l-0.4-0.4c-6.5-6-9.3-13.9-8.5-14.5 0.6-0.4 2.6 3.1 7.8 6 3.2 1.7 6.2 2.5 9.6 3.1h0.1c0.7 0.1 1.4 0.3 2.2 0.3 2.4 0.2 4.8 0.8 10.8 1 8.6 0.5 8.1 0.1 10.5 0.5 3.1 0.6 9.8 1.8 13.9 7.4 4.1 5.4 3.4 11.8 3.2 14.4-0.2 0.3-0.2 0.6-0.3 1z"/>
			<path class="st22" d="m549 360.5c-1 3.3-2.4 5.7-3.2 6.8-0.5 0.7-1.7 2.5-3.9 4.4-0.9 0.8-2 1.7-3.2 2.4s-2.6 1.5-4.1 2.1c-7 2.2-14.4-0.2-21.1-2.5-5.3-2-10-6.4-15.8-7.1-1.2-0.2-2.5-0.2-3.7-0.1-3.6 0.3-7.2 1.8-10 4.7-0.8 0.9-1.4 1.9-1.9 2.9-0.4 0.9-0.8 1.8-1 2.7-2.1 6.6 2.2 14.4 8.9 15.1 0.9 0.1 1.8 0.1 2.6 0 1.7-0.2 3.4-0.9 4.6-1.9 0.6-0.5 1.2-1.2 1.6-1.9 2.7-3.7-0.3-7.4-3-10.3-0.6-0.5-0.4-1.6 0.4-1.8 3.2-0.8 6 0.6 7.6 3.3 1.8 3.8 1.5 8.3-0.7 12-0.4 0.7-0.9 1.5-1.5 2.1-1.1 1.3-2.5 2.4-4.1 3.2-1.9 0.8-4 1.4-6.1 1.5-1 0.1-2.1 0.1-3.1-0.1-1.9 0.2-3.5-0.9-5.3-1.7 1.6 1.1 3.5 1.2 5.5 1.5 0.8 0.1 1.7 0.1 2.5 0 3.4-0.3 6.7-1.7 9-4 0.9-0.9 1.6-1.9 2.1-3 0-1.3 1.4-2.5 0.9-3.7-0.9 2.1-2.6 3.3-4.2 4.3-0.8 0.6-1.7 1.1-2.6 1.5-1.4 0.7-3 1.1-4.6 1.1-0.8 0-1.6 0-2.3-0.1-9-1-13.3-11.9-9.3-19.5 0.5-1.1 1.2-2.2 1.9-3.1 2.3-2.9 5.5-4.6 9.1-5.5 1.2-0.3 2.6-0.7 3.8-0.8 3.9-0.6 7-0.4 11.3-1 7.7-1 24.4 0.7 27.3 0.9 0 0 1 0 3.5-0.2 3.3-0.3 6.8-0.7 9.1-2.3 1.6-0.9 2.7-1.7 3-1.9z"/>
			<path class="st22" d="m476.3 389.9c0 0.1-0.3-0.3-0.3-0.3-4.1 6.3-9.3 12.4-12.9 19.2-0.6 0.9-1.1 1.8-1.6 2.5s-0.8 1.3-1.1 1.6c-0.5 0.8-1.1 1.5-1.1 1.5s-0.1 0.2-0.3 0.3c-1.4 1.7-2.9 3.2-4.5 4.6-1.8 1.3-2.4 1.8-3 2.3-3.6 2.9-7.4 5.2-11.4 7.1 9.9-7.7 15.5-13.9 18.8-18.6 0.5-0.7 0.9-1.3 1.3-1.9 5-8.4 10.5-16.3 15.5-24.7 0.4 1.6-0.4 3.3 0.2 5 0.2 0.4 0.3 0.9 0.4 1.4z"/>
			<path class="st22" d="m449.7 407.4c-0.6-1.4-1.9-3.7-4.2-5.9-1.6-1.5-4.2-3.9-8-4.1-3.2-0.2-5.6 1.4-7.4 2.5-2 1.3-3.6 2.8-4.7 4.3 0.6-5.3 7.1-8.5 12.2-8.1s9.7 3.3 12.9 7.3c-0.3 1.3-0.5 2.6-0.8 4z"/>
		</g>
	</g>
	<g class="st0">
		<g class="st1">
				<image transform="translate(391 57)" width="192" height="191" opacity=".75" overflow="visible" xlink:href="4E7FB9A5.png">
			</image>
				<circle class="st21" cx="482" cy="148.8" r="86.2"/>
		</g>
		<g class="st1">
			<path class="st21" d="m503.4 144.2c0.8 1.3-0.3 3-0.8 4.2-0.6 1.1-1.4 2.2-2 3.2-3 3.1-7.5 4.7-12 4.1-0.4-0.1-0.7-0.1-1.1-0.2-4.7-1.1-9-4-11.5-7.9-4.1 6.3-9.3 12.4-12.9 19.2-0.6 0.9-1.1 1.8-1.6 2.5s-0.8 1.3-1.1 1.6c-0.5 0.8-1.1 1.5-1.1 1.5s-0.1 0.2-0.3 0.3c-1.4 1.7-2.9 3.2-4.5 4.6-1.8 1.3-2.4 1.8-3 2.3-3.6 2.9-7.4 5.2-11.4 7.1-9 4.3-18.9 6.2-29 6.3 14.6-0.5 35.5-5.3 36.4-23.1-0.1-1.1-0.4-2.1-0.7-3.2-1.1-3-3.1-5.7-6-7.3-5.5-2.8-11.3-0.7-15.6 3.3v-0.6c0.6-5.3 7.1-8.5 12.2-8.1s9.7 3.3 12.9 7.3c0.1 0.1 0.1 0.2 0.2 0.3 1-1.6 1.7-2.9 2.3-4 4.7-10 11.6-18.7 19.9-26.4 0.9-0.8 1.8-1.6 2.8-2.4 0.7-0.5 1.5-1 2.3-1.4 3.9-2.4 8.1-4.7 13.9-5.9 0 0 1.9-0.4 5.1-0.7 1-0.1 2.2-0.2 3.5-0.2 4.6-0.2 9.5 0.2 13.9 0.6 1.6 0.2 3.8 0.4 4.2 0.5-5.7 1-8.2 0.3-15.1 0.8v0.1c-0.3 0-0.7 0.1-1 0.1h-0.1c-1.8 0.2-3.8 0.4-6.2 0.7-1.2-0.1-2.3 0.1-3.4 0.2-3.1 0.5-6 1.6-8.5 3.6-1 0.8-1.9 1.8-2.7 2.9-0.3 0.4-0.5 0.7-0.7 1.1 0 0.1-0.1 0.2-0.1 0.2-0.1 0.1-0.1 0.3-0.2 0.4s-0.1 0.3-0.2 0.4v0.1c-3.4 6.8 0.4 16.8 7.9 19 1.4 0.4 2.8 0.6 4.2 0.5s2.8-0.5 4.1-1.1c0.9-0.4 1.7-0.9 2.5-1.5 1.7-1 3.7-3.2 4.5-5z"/>
			<path class="st21" d="m549 118.5c-0.3 0.2-1.4 1-2.8 1.9-2.4 1.5-6.3 2.3-9.6 2.6-1.1 0.1-2.2 0.2-3.1 0.2-5.2 0.1-10-0.6-15.1-1.4 3.4 0 6.8-1.5 9.2-4.5 0.8-1 1.4-2.2 1.7-3.5 0-0.1 0.1-0.3 0.1-0.4s0-0.2 0.1-0.3c0.6-2.9-0.1-5.9-1.7-8.3 4.1 0.3 6.8 0.6 10.1 1.7 5.3 1.8 7.5 3.1 8.7 4.5 1.2 1.5 3 3.8 3.1 4.3 0 0.1 0 0.3-0.1 0.5-0.1 1-0.3 1.8-0.6 2.7z"/>
		</g>
		<g class="st1">
			<path class="st25" d="m549.7 115.2c-0.1-0.5-1.9-2.8-3.1-4.3s-3.3-2.8-8.7-4.5c-3.3-1.1-6-1.3-10.1-1.7h-0.4c-4.3-0.4-6.8 0-8.4-0.3-1.7-0.2-5.9-0.3-10.4-2.9-2.5-1.3-5.2-2.9-7.8-5.1l-0.4-0.4c-6.5-6-9.3-13.9-8.5-14.5 0.6-0.4 2.6 3.1 7.8 6 3.2 1.7 6.2 2.5 9.6 3.1h0.1c0.7 0.1 1.4 0.3 2.2 0.3 2.4 0.2 4.8 0.8 10.8 1 8.6 0.5 8.1 0.1 10.5 0.5 3.1 0.6 9.8 1.8 13.9 7.4 4.1 5.4 3.4 11.8 3.2 14.4-0.2 0.3-0.2 0.6-0.3 1z"/>
			<path class="st25" d="m549 118.5c-1 3.3-2.4 5.7-3.2 6.8-0.5 0.7-1.7 2.5-3.9 4.4-0.9 0.8-2 1.7-3.2 2.4-1.2 0.8-2.6 1.5-4.1 2.1-7 2.2-14.4-0.2-21.1-2.5-5.3-2-10-6.4-15.8-7.1-1.2-0.2-2.5-0.2-3.7-0.1-3.6 0.3-7.2 1.8-10 4.7-0.8 0.9-1.4 1.9-1.9 2.9-0.4 0.9-0.8 1.8-1 2.7-2.1 6.6 2.2 14.4 8.9 15.1 0.9 0.1 1.8 0.1 2.6 0 1.7-0.2 3.4-0.9 4.6-1.9 0.6-0.5 1.2-1.2 1.6-1.9 2.7-3.7-0.3-7.4-3-10.3-0.6-0.5-0.4-1.6 0.4-1.8 3.2-0.8 6 0.6 7.6 3.3 1.8 3.8 1.5 8.3-0.7 12-0.4 0.7-0.9 1.5-1.5 2.1-1.1 1.3-2.5 2.4-4.1 3.2-1.9 0.8-4 1.4-6.1 1.5-1 0.1-2.1 0.1-3.1-0.1-1.9 0.2-3.5-0.9-5.3-1.7 1.6 1.1 3.5 1.2 5.5 1.5 0.8 0.1 1.7 0.1 2.5 0 3.4-0.3 6.7-1.7 9-4 0.9-0.9 1.6-1.9 2.1-3 0-1.3 1.4-2.5 0.9-3.7-0.9 2.1-2.6 3.3-4.2 4.3-0.8 0.6-1.7 1.1-2.6 1.5-1.4 0.7-3 1.1-4.6 1.1-0.8 0-1.6 0-2.3-0.1-9-1-13.3-11.9-9.3-19.5 0.5-1.1 1.2-2.2 1.9-3.1 2.3-2.9 5.5-4.6 9.1-5.5 1.2-0.3 2.6-0.7 3.8-0.8 3.9-0.6 7-0.4 11.3-1 7.7-1 24.4 0.7 27.3 0.9 0 0 1 0 3.5-0.2 3.3-0.3 6.8-0.7 9.1-2.3 1.6-0.9 2.8-1.7 3-1.9z"/>
			<path class="st25" d="m476.3 147.9c0 0.1-0.3-0.3-0.3-0.3-4.1 6.3-9.3 12.4-12.9 19.2-0.6 0.9-1.1 1.8-1.6 2.5s-0.8 1.3-1.1 1.6c-0.5 0.8-1.1 1.5-1.1 1.5s-0.1 0.2-0.3 0.3c-1.4 1.7-2.9 3.2-4.5 4.6-1.8 1.3-2.4 1.8-3 2.3-3.6 2.9-7.4 5.2-11.4 7.1 9.9-7.7 15.5-13.9 18.8-18.6 0.5-0.7 0.9-1.3 1.3-1.9 5-8.4 10.5-16.3 15.5-24.7 0.4 1.6-0.4 3.3 0.2 5 0.2 0.4 0.3 0.9 0.4 1.4z"/>
			<path class="st25" d="m449.7 165.4c-0.6-1.4-1.9-3.7-4.2-5.9-1.6-1.5-4.2-3.9-8-4.1-3.2-0.2-5.6 1.4-7.4 2.5-2 1.3-3.6 2.8-4.7 4.3 0.6-5.3 7.1-8.5 12.2-8.1s9.7 3.3 12.9 7.3c-0.2 1.3-0.5 2.6-0.8 4z"/>
		</g>
	</g>
	<g class="st0">
		<g class="st1">
				<image transform="translate(653 57)" width="192" height="191" opacity=".75" overflow="visible" xlink:href="4E7FB9A3.png">
			</image>
				<circle class="st21" cx="744" cy="148.8" r="86.2"/>
		</g>
		<g class="st1">
			<path class="st21" d="m765.4 144.2c0.8 1.3-0.3 3-0.8 4.2-0.6 1.1-1.4 2.2-2 3.2-3 3.1-7.5 4.7-12 4.1-0.4-0.1-0.7-0.1-1.1-0.2-4.7-1.1-9-4-11.5-7.9-4.1 6.3-9.3 12.4-12.9 19.2-0.6 0.9-1.1 1.8-1.6 2.5s-0.8 1.3-1.1 1.6c-0.5 0.8-1.1 1.5-1.1 1.5s-0.1 0.2-0.3 0.3c-1.4 1.7-2.9 3.2-4.5 4.6-1.8 1.3-2.4 1.8-3 2.3-3.6 2.9-7.4 5.2-11.4 7.1-9 4.3-18.9 6.2-29 6.3 14.6-0.5 35.5-5.3 36.4-23.1-0.1-1.1-0.4-2.1-0.7-3.2-1.1-3-3.1-5.7-6-7.3-5.5-2.8-11.3-0.7-15.6 3.3v-0.6c0.6-5.3 7.1-8.5 12.2-8.1s9.7 3.3 12.9 7.3c0.1 0.1 0.1 0.2 0.2 0.3 1-1.6 1.7-2.9 2.3-4 4.7-10 11.6-18.7 19.9-26.4 0.9-0.8 1.8-1.6 2.8-2.4 0.7-0.5 1.5-1 2.3-1.4 3.9-2.4 8.1-4.7 13.9-5.9 0 0 1.9-0.4 5.1-0.7 1-0.1 2.2-0.2 3.5-0.2 4.6-0.2 9.5 0.2 13.9 0.6 1.6 0.2 3.8 0.4 4.2 0.5-5.7 1-8.2 0.3-15.1 0.8v0.1c-0.3 0-0.7 0.1-1 0.1h-0.1c-1.8 0.2-3.8 0.4-6.2 0.7-1.2-0.1-2.3 0.1-3.4 0.2-3.1 0.5-6 1.6-8.5 3.6-1 0.8-1.9 1.8-2.7 2.9-0.3 0.4-0.5 0.7-0.7 1.1 0 0.1-0.1 0.2-0.1 0.2-0.1 0.1-0.1 0.3-0.2 0.4s-0.1 0.3-0.2 0.4v0.1c-3.4 6.8 0.4 16.8 7.9 19 1.4 0.4 2.8 0.6 4.2 0.5s2.8-0.5 4.1-1.1c0.9-0.4 1.7-0.9 2.5-1.5 1.7-1 3.7-3.2 4.5-5z"/>
			<path class="st21" d="m811 118.5c-0.3 0.2-1.4 1-2.8 1.9-2.4 1.5-6.3 2.3-9.6 2.6-1.1 0.1-2.2 0.2-3.1 0.2-5.2 0.1-10-0.6-15.1-1.4 3.4 0 6.8-1.5 9.2-4.5 0.8-1 1.4-2.2 1.7-3.5 0-0.1 0.1-0.3 0.1-0.4s0-0.2 0.1-0.3c0.6-2.9-0.1-5.9-1.7-8.3 4.1 0.3 6.8 0.6 10.1 1.7 5.3 1.8 7.5 3.1 8.7 4.5 1.2 1.5 3 3.8 3.1 4.3 0 0.1 0 0.3-0.1 0.5-0.1 1-0.3 1.8-0.6 2.7z"/>
		</g>
		<g class="st1">
			<path class="st26" d="m811.7 115.2c-0.1-0.5-1.9-2.8-3.1-4.3s-3.3-2.8-8.7-4.5c-3.3-1.1-6-1.3-10.1-1.7h-0.4c-4.3-0.4-6.8 0-8.4-0.3-1.7-0.2-5.9-0.3-10.4-2.9-2.5-1.3-5.2-2.9-7.8-5.1l-0.4-0.4c-6.5-6-9.3-13.9-8.5-14.5 0.6-0.4 2.6 3.1 7.8 6 3.2 1.7 6.2 2.5 9.6 3.1h0.1c0.7 0.1 1.4 0.3 2.2 0.3 2.4 0.2 4.8 0.8 10.8 1 8.6 0.5 8.1 0.1 10.5 0.5 3.1 0.6 9.8 1.8 13.9 7.4 4.1 5.4 3.4 11.8 3.2 14.4-0.2 0.3-0.2 0.6-0.3 1z"/>
			<path class="st26" d="m811 118.5c-1 3.3-2.4 5.7-3.2 6.8-0.5 0.7-1.7 2.5-3.9 4.4-0.9 0.8-2 1.7-3.2 2.4-1.2 0.8-2.6 1.5-4.1 2.1-7 2.2-14.4-0.2-21.1-2.5-5.3-2-10-6.4-15.8-7.1-1.2-0.2-2.5-0.2-3.7-0.1-3.6 0.3-7.2 1.8-10 4.7-0.8 0.9-1.4 1.9-1.9 2.9-0.4 0.9-0.8 1.8-1 2.7-2.1 6.6 2.2 14.4 8.9 15.1 0.9 0.1 1.8 0.1 2.6 0 1.7-0.2 3.4-0.9 4.6-1.9 0.6-0.5 1.2-1.2 1.6-1.9 2.7-3.7-0.3-7.4-3-10.3-0.6-0.5-0.4-1.6 0.4-1.8 3.2-0.8 6 0.6 7.6 3.3 1.8 3.8 1.5 8.3-0.7 12-0.4 0.7-0.9 1.5-1.5 2.1-1.1 1.3-2.5 2.4-4.1 3.2-1.9 0.8-4 1.4-6.1 1.5-1 0.1-2.1 0.1-3.1-0.1-1.9 0.2-3.5-0.9-5.3-1.7 1.6 1.1 3.5 1.2 5.5 1.5 0.8 0.1 1.7 0.1 2.5 0 3.4-0.3 6.7-1.7 9-4 0.9-0.9 1.6-1.9 2.1-3 0-1.3 1.4-2.5 0.9-3.7-0.9 2.1-2.6 3.3-4.2 4.3-0.8 0.6-1.7 1.1-2.6 1.5-1.4 0.7-3 1.1-4.6 1.1-0.8 0-1.6 0-2.3-0.1-9-1-13.3-11.9-9.3-19.5 0.5-1.1 1.2-2.2 1.9-3.1 2.3-2.9 5.5-4.6 9.1-5.5 1.2-0.3 2.6-0.7 3.8-0.8 3.9-0.6 7-0.4 11.3-1 7.7-1 24.4 0.7 27.3 0.9 0 0 1 0 3.5-0.2 3.3-0.3 6.8-0.7 9.1-2.3 1.6-0.9 2.8-1.7 3-1.9z"/>
			<path class="st26" d="m738.3 147.9c0 0.1-0.3-0.3-0.3-0.3-4.1 6.3-9.3 12.4-12.9 19.2-0.6 0.9-1.1 1.8-1.6 2.5s-0.8 1.3-1.1 1.6c-0.5 0.8-1.1 1.5-1.1 1.5s-0.1 0.2-0.3 0.3c-1.4 1.7-2.9 3.2-4.5 4.6-1.8 1.3-2.4 1.8-3 2.3-3.6 2.9-7.4 5.2-11.4 7.1 9.9-7.7 15.5-13.9 18.8-18.6 0.5-0.7 0.9-1.3 1.3-1.9 5-8.4 10.5-16.3 15.5-24.7 0.4 1.6-0.4 3.3 0.2 5 0.2 0.4 0.3 0.9 0.4 1.4z"/>
			<path class="st26" d="m711.7 165.4c-0.6-1.4-1.9-3.7-4.2-5.9-1.6-1.5-4.2-3.9-8-4.1-3.2-0.2-5.6 1.4-7.4 2.5-2 1.3-3.6 2.8-4.7 4.3 0.6-5.3 7.1-8.5 12.2-8.1s9.7 3.3 12.9 7.3c-0.2 1.3-0.5 2.6-0.8 4z"/>
		</g>
	</g>
	<g class="st0">
			<image transform="translate(658 292)" width="201" height="201" opacity=".75" overflow="visible" xlink:href="4E7FB9AD.png">
		</image>
		<g class="st1">
			<path class="st22" d="m753.6 302.5c47.6 0 86.2 38.6 86.2 86.2s-38.5 86.3-86.2 86.3c-47.6 0-86.2-38.6-86.2-86.2s38.6-86.3 86.2-86.3m0-5c-50.3 0-91.2 40.9-91.2 91.2s40.9 91.2 91.2 91.2 91.2-40.9 91.2-91.2-40.8-91.2-91.2-91.2z"/>
		</g>
	</g>
	<g class="st0">
		<g class="st1">
			<path class="st27" d="m780.1 390.2c0.8 1.3-0.3 3-0.8 4.2-0.6 1.1-1.4 2.2-2 3.2-3 3.1-7.5 4.7-12 4.1-0.4-0.1-0.7-0.1-1.1-0.2-4.7-1.1-9-4-11.5-7.9-4.1 6.3-9.3 12.4-12.9 19.2-0.6 0.9-1.1 1.8-1.6 2.5s-0.8 1.3-1.1 1.6c-0.5 0.8-1.1 1.5-1.1 1.5s-0.1 0.2-0.3 0.3c-1.4 1.7-2.9 3.2-4.5 4.6-1.8 1.3-2.4 1.8-3 2.3-3.6 2.9-7.4 5.2-11.4 7.1-9 4.3-18.9 6.2-29 6.3 14.6-0.5 35.5-5.3 36.4-23.1-0.1-1.1-0.4-2.1-0.7-3.2-1.1-3-3.1-5.7-6-7.3-5.5-2.8-11.3-0.7-15.6 3.3v-0.6c0.6-5.3 7.1-8.5 12.2-8.1s9.7 3.3 12.9 7.3c0.1 0.1 0.1 0.2 0.2 0.3 1-1.6 1.7-2.9 2.3-4 4.7-10 11.6-18.7 19.9-26.4 0.9-0.8 1.8-1.6 2.8-2.4 0.7-0.5 1.5-1 2.3-1.4 3.9-2.4 8.1-4.7 13.9-5.9 0 0 1.9-0.4 5.1-0.7 1-0.1 2.2-0.2 3.5-0.2 4.6-0.2 9.5 0.2 13.9 0.6 1.6 0.2 3.8 0.4 4.2 0.5-5.7 1-8.2 0.3-15.1 0.8v0.1c-0.3 0-0.7 0.1-1 0.1h-0.1c-1.8 0.2-3.8 0.4-6.2 0.7-1.2-0.1-2.3 0.1-3.4 0.2-3.1 0.5-6 1.6-8.5 3.6-1 0.8-1.9 1.8-2.7 2.9-0.3 0.4-0.5 0.7-0.7 1.1 0 0.1-0.1 0.2-0.1 0.2-0.1 0.1-0.1 0.3-0.2 0.4s-0.1 0.3-0.2 0.4v0.1c-3.4 6.8 0.4 16.8 7.9 19 1.4 0.4 2.8 0.6 4.2 0.5s2.8-0.5 4.1-1.1c0.9-0.4 1.7-0.9 2.5-1.5 1.8-1 3.8-3.2 4.5-5z"/>
			<path class="st27" d="m825.7 364.5c-0.3 0.2-1.4 1-2.8 1.9-2.4 1.5-6.3 2.3-9.6 2.6-1.1 0.1-2.2 0.2-3.1 0.2-5.2 0.1-10-0.6-15.1-1.4 3.4 0 6.8-1.5 9.2-4.5 0.8-1 1.4-2.2 1.7-3.5 0-0.1 0.1-0.3 0.1-0.4s0-0.2 0.1-0.3c0.6-2.9-0.1-5.9-1.7-8.3 4.1 0.3 6.8 0.6 10.1 1.7 5.3 1.8 7.5 3.1 8.7 4.5 1.2 1.5 3 3.8 3.1 4.3 0 0.1 0 0.3-0.1 0.5-0.1 1-0.3 1.8-0.6 2.7z"/>
		</g>
		<g class="st1">
			<path class="st22" d="m826.5 361.2c-0.1-0.5-1.9-2.8-3.1-4.3s-3.3-2.8-8.7-4.5c-3.3-1.1-6-1.3-10.1-1.7h-0.4c-4.3-0.4-6.8 0-8.4-0.3-1.7-0.2-5.9-0.3-10.4-2.9-2.5-1.3-5.2-2.9-7.8-5.1l-0.4-0.4c-6.5-6-9.3-13.9-8.5-14.5 0.6-0.4 2.6 3.1 7.8 6 3.2 1.7 6.2 2.5 9.6 3.1h0.1c0.7 0.1 1.4 0.3 2.2 0.3 2.4 0.2 4.8 0.8 10.8 1 8.6 0.5 8.1 0.1 10.5 0.5 3.1 0.6 9.8 1.8 13.9 7.4 4.1 5.4 3.4 11.8 3.2 14.4-0.2 0.3-0.3 0.6-0.3 1z"/>
			<path class="st22" d="m825.7 364.5c-1 3.3-2.4 5.7-3.2 6.8-0.5 0.7-1.7 2.5-3.9 4.4-0.9 0.8-2 1.7-3.2 2.4-1.2 0.8-2.6 1.5-4.1 2.1-7 2.2-14.4-0.2-21.1-2.5-5.3-2-10-6.4-15.8-7.1-1.2-0.2-2.5-0.2-3.7-0.1-3.6 0.3-7.2 1.8-10 4.7-0.8 0.9-1.4 1.9-1.9 2.9-0.4 0.9-0.8 1.8-1 2.7-2.1 6.6 2.2 14.4 8.9 15.1 0.9 0.1 1.8 0.1 2.6 0 1.7-0.2 3.4-0.9 4.6-1.9 0.6-0.5 1.2-1.2 1.6-1.9 2.7-3.7-0.3-7.4-3-10.3-0.6-0.5-0.4-1.6 0.4-1.8 3.2-0.8 6 0.6 7.6 3.3 1.8 3.8 1.5 8.3-0.7 12-0.4 0.7-0.9 1.5-1.5 2.1-1.1 1.3-2.5 2.4-4.1 3.2-1.9 0.8-4 1.4-6.1 1.5-1 0.1-2.1 0.1-3.1-0.1-1.9 0.2-3.5-0.9-5.3-1.7 1.6 1.1 3.5 1.2 5.5 1.5 0.8 0.1 1.7 0.1 2.5 0 3.4-0.3 6.7-1.7 9-4 0.9-0.9 1.6-1.9 2.1-3 0-1.3 1.4-2.5 0.9-3.7-0.9 2.1-2.6 3.3-4.2 4.3-0.8 0.6-1.7 1.1-2.6 1.5-1.4 0.7-3 1.1-4.6 1.1-0.8 0-1.6 0-2.3-0.1-9-1-13.3-11.9-9.3-19.5 0.5-1.1 1.2-2.2 1.9-3.1 2.3-2.9 5.5-4.6 9.1-5.5 1.2-0.3 2.6-0.7 3.8-0.8 3.9-0.6 7-0.4 11.3-1 7.7-1 24.4 0.7 27.3 0.9 0 0 1 0 3.5-0.2 3.3-0.3 6.8-0.7 9.1-2.3 1.6-0.9 2.8-1.7 3-1.9z"/>
			<path class="st22" d="m753 393.9c0 0.1-0.3-0.3-0.3-0.3-4.1 6.3-9.3 12.4-12.9 19.2-0.6 0.9-1.1 1.8-1.6 2.5s-0.8 1.3-1.1 1.6c-0.5 0.8-1.1 1.5-1.1 1.5s-0.1 0.2-0.3 0.3c-1.4 1.7-2.9 3.2-4.5 4.6-1.8 1.3-2.4 1.8-3 2.3-3.6 2.9-7.4 5.2-11.4 7.1 9.9-7.7 15.5-13.9 18.8-18.6 0.5-0.7 0.9-1.3 1.3-1.9 5-8.4 10.5-16.3 15.5-24.7 0.4 1.6-0.4 3.3 0.2 5 0.3 0.4 0.3 0.9 0.4 1.4z"/>
			<path class="st22" d="m726.4 411.4c-0.6-1.4-1.9-3.7-4.2-5.9-1.6-1.5-4.2-3.9-8-4.1-3.2-0.2-5.6 1.4-7.4 2.5-2 1.3-3.6 2.8-4.7 4.3 0.6-5.3 7.1-8.5 12.2-8.1s9.7 3.3 12.9 7.3c-0.2 1.3-0.5 2.6-0.8 4z"/>
		</g>
	</g>
	<g class="st0">
		<g class="st1">
			<path class="st21" d="m1068.4 352.2c0.8 1.3-0.3 3-0.8 4.2-0.6 1.1-1.4 2.2-2 3.2-3 3.1-7.5 4.7-12 4.1-0.4-0.1-0.7-0.1-1.1-0.2-4.7-1.1-9-4-11.5-7.9-4.1 6.3-9.3 12.4-12.9 19.2-0.6 0.9-1.1 1.8-1.6 2.5s-0.8 1.3-1.1 1.6c-0.5 0.8-1.1 1.5-1.1 1.5s-0.1 0.2-0.3 0.3c-1.4 1.7-2.9 3.2-4.5 4.6-1.8 1.3-2.4 1.8-3 2.3-3.6 2.9-7.4 5.2-11.4 7.1-9 4.3-18.9 6.2-29 6.3 14.6-0.5 35.5-5.3 36.4-23.1-0.1-1.1-0.4-2.1-0.7-3.2-1.1-3-3.1-5.7-6-7.3-5.5-2.8-11.3-0.7-15.6 3.3v-0.6c0.6-5.3 7.1-8.5 12.2-8.1s9.7 3.3 12.9 7.3c0.1 0.1 0.1 0.2 0.2 0.3 1-1.6 1.7-2.9 2.3-4 4.7-10 11.6-18.7 19.9-26.4 0.9-0.8 1.8-1.6 2.8-2.4 0.7-0.5 1.5-1 2.3-1.4 3.9-2.4 8.1-4.7 13.9-5.9 0 0 1.9-0.4 5.1-0.7 1-0.1 2.2-0.2 3.5-0.2 4.6-0.2 9.5 0.2 13.9 0.6 1.6 0.2 3.8 0.4 4.2 0.5-5.7 1-8.2 0.3-15.1 0.8v0.1c-0.3 0-0.7 0.1-1 0.1h-0.1c-1.8 0.2-3.8 0.4-6.2 0.7-1.2-0.1-2.3 0.1-3.4 0.2-3.1 0.5-6 1.6-8.5 3.6-1 0.8-1.9 1.8-2.7 2.9-0.3 0.4-0.5 0.7-0.7 1.1 0 0.1-0.1 0.2-0.1 0.2-0.1 0.1-0.1 0.3-0.2 0.4s-0.1 0.3-0.2 0.4v0.1c-3.4 6.8 0.4 16.8 7.9 19 1.4 0.4 2.8 0.6 4.2 0.5s2.8-0.5 4.1-1.1c0.9-0.4 1.7-0.9 2.5-1.5 1.7-1 3.7-3.2 4.5-5z"/>
			<path class="st21" d="m1114 326.5c-0.3 0.2-1.4 1-2.8 1.9-2.4 1.5-6.3 2.3-9.6 2.6-1.1 0.1-2.2 0.2-3.1 0.2-5.2 0.1-10-0.6-15.1-1.4 3.4 0 6.8-1.5 9.2-4.5 0.8-1 1.4-2.2 1.7-3.5 0-0.1 0.1-0.3 0.1-0.4s0-0.2 0.1-0.3c0.6-2.9-0.1-5.9-1.7-8.3 4.1 0.3 6.8 0.6 10.1 1.7 5.3 1.8 7.5 3.1 8.7 4.5 1.2 1.5 3 3.8 3.1 4.3 0 0.1 0 0.3-0.1 0.5-0.1 1-0.4 1.8-0.6 2.7z"/>
		</g>
		<g class="st1">
			<path class="st22" d="m1114.7 323.2c-0.1-0.5-1.9-2.8-3.1-4.3s-3.3-2.8-8.7-4.5c-3.3-1.1-6-1.3-10.1-1.7h-0.4c-4.3-0.4-6.8 0-8.4-0.3-1.7-0.2-5.9-0.3-10.4-2.9-2.5-1.3-5.2-2.9-7.8-5.1l-0.4-0.4c-6.5-6-9.3-13.9-8.5-14.5 0.6-0.4 2.6 3.1 7.8 6 3.2 1.7 6.2 2.5 9.6 3.1h0.1c0.7 0.1 1.4 0.3 2.2 0.3 2.4 0.2 4.8 0.8 10.8 1 8.6 0.5 8.1 0.1 10.5 0.5 3.1 0.6 9.8 1.8 13.9 7.4 4.1 5.4 3.4 11.8 3.2 14.4-0.2 0.3-0.2 0.6-0.3 1z"/>
			<path class="st22" d="m1114 326.5c-1 3.3-2.4 5.7-3.2 6.8-0.5 0.7-1.7 2.5-3.9 4.4-0.9 0.8-2 1.7-3.2 2.4s-2.6 1.5-4.1 2.1c-7 2.2-14.4-0.2-21.1-2.5-5.3-2-10-6.4-15.8-7.1-1.2-0.2-2.5-0.2-3.7-0.1-3.6 0.3-7.2 1.8-10 4.7-0.8 0.9-1.4 1.9-1.9 2.9-0.4 0.9-0.8 1.8-1 2.7-2.1 6.6 2.2 14.4 8.9 15.1 0.9 0.1 1.8 0.1 2.6 0 1.7-0.2 3.4-0.9 4.6-1.9 0.6-0.5 1.2-1.2 1.6-1.9 2.7-3.7-0.3-7.4-3-10.3-0.6-0.5-0.4-1.6 0.4-1.8 3.2-0.8 6 0.6 7.6 3.3 1.8 3.8 1.5 8.3-0.7 12-0.4 0.7-0.9 1.5-1.5 2.1-1.1 1.3-2.5 2.4-4.1 3.2-1.9 0.8-4 1.4-6.1 1.5-1 0.1-2.1 0.1-3.1-0.1-1.9 0.2-3.5-0.9-5.3-1.7 1.6 1.1 3.5 1.2 5.5 1.5 0.8 0.1 1.7 0.1 2.5 0 3.4-0.3 6.7-1.7 9-4 0.9-0.9 1.6-1.9 2.1-3 0-1.3 1.4-2.5 0.9-3.7-0.9 2.1-2.6 3.3-4.2 4.3-0.8 0.6-1.7 1.1-2.6 1.5-1.4 0.7-3 1.1-4.6 1.1-0.8 0-1.6 0-2.3-0.1-9-1-13.3-11.9-9.3-19.5 0.5-1.1 1.2-2.2 1.9-3.1 2.3-2.9 5.5-4.6 9.1-5.5 1.2-0.3 2.6-0.7 3.8-0.8 3.9-0.6 7-0.4 11.3-1 7.7-1 24.4 0.7 27.3 0.9 0 0 1 0 3.5-0.2 3.3-0.3 6.8-0.7 9.1-2.3 1.6-0.9 2.7-1.7 3-1.9z"/>
			<path class="st22" d="m1041.3 355.9c0 0.1-0.3-0.3-0.3-0.3-4.1 6.3-9.3 12.4-12.9 19.2-0.6 0.9-1.1 1.8-1.6 2.5s-0.8 1.3-1.1 1.6c-0.5 0.8-1.1 1.5-1.1 1.5s-0.1 0.2-0.3 0.3c-1.4 1.7-2.9 3.2-4.5 4.6-1.8 1.3-2.4 1.8-3 2.3-3.6 2.9-7.4 5.2-11.4 7.1 9.9-7.7 15.5-13.9 18.8-18.6 0.5-0.7 0.9-1.3 1.3-1.9 5-8.4 10.5-16.3 15.5-24.7 0.4 1.6-0.4 3.3 0.2 5 0.2 0.4 0.3 0.9 0.4 1.4z"/>
			<path class="st22" d="m1014.7 373.4c-0.6-1.4-1.9-3.7-4.2-5.9-1.6-1.5-4.2-3.9-8-4.1-3.2-0.2-5.6 1.4-7.4 2.5-2 1.3-3.6 2.8-4.7 4.3 0.6-5.3 7.1-8.5 12.2-8.1s9.7 3.3 12.9 7.3c-0.3 1.3-0.5 2.6-0.8 4z"/>
		</g>
	</g>
</svg>
