<?xml version="1.0" encoding="UTF-8"?>
<svg enable-background="new 0 0 104.3 34.7" version="1.1" viewBox="0 0 104.3 34.7" xml:space="preserve" xmlns="http://www.w3.org/2000/svg">
<style type="text/css">
	.st0{fill:url(#i);}
	.st1{fill:url(#h);}
	.st2{fill:url(#g);}
	.st3{fill:url(#f);}
	.st4{fill:url(#e);}
	.st5{fill:url(#d);}
	.st6{fill:url(#c);}
	.st7{fill:url(#b);}
	.st8{fill:url(#a);}
	.st9{fill:url(#l);}
	.st10{fill:url(#k);}
	.st11{fill:url(#j);}
</style>
<linearGradient id="i" x1="26.421" x2="26.28" y1="-.014275" y2="30.05" gradientUnits="userSpaceOnUse">
	<stop stop-color="#222220" offset=".2194"/>
	<stop stop-color="#1C1C1C" offset=".5204"/>
	<stop stop-color="#020202" offset=".7704"/>
</linearGradient>
<path class="st0" d="m47.7 10.9c0 1.3-0.6 2.6-1.9 4.1s-3.2 2.7-5.7 3.7c-2.6 0.9-5 1.4-7.4 1.4s-4.3-0.3-5.7-0.9c-3.1 4.6-5.1 7.3-6.1 8.3-2.7 2.7-5.8 4-9.5 4-2.1 0-3.7-0.5-4.7-1.5s-1.6-2.2-1.6-3.8c-0.1-2.2 0.8-4.2 2.5-6.1 1.9-2.1 4.3-3.1 7.2-3.1 1.2 0 2.2 0.3 3 0.8s1.2 1.4 1.2 2.5c0 0.7-0.5 1.5-1.3 2.7-1 1.6-1.8 2-2 2.2-0.5 0.5-7.4 4.8-7.4 4.7s6.9-4.4 7.7-5.5c0.9-1.1 1.4-2.4 1.4-3.4s-0.3-1.7-0.9-2.3c-0.6-0.5-1.4-0.8-2.2-0.8-2.1 0-3.9 0.9-5.5 2.8s-2.4 3.8-2.4 5.7c0 1.2 0.4 2.2 1.2 3s2 1.1 3.6 1.1c3 0 5.6-1 7.8-3.1 1.3-1.2 2.5-2.9 3.8-5.2l3.2-5.8c1.6-2.5 3.4-6.3 5.5-11.3h-0.7c-3.3 0-6.7 0.4-10 1.1-3.4 0.7-5.9 1.8-7.6 3.1-0.7 0.6-1.1 1.1-1.1 1.7 0 0.5 0.3 1 0.9 1.3s1.3 0.5 2.1 0.5 1.8-0.2 2.9-0.5c1.2-0.3 3.6-2 4.2-2.5 0.2-0.2 7.1-6.6 7.2-6.6 0.2 0-5.8 6.3-6 6.5-0.9 1-3.9 3.1-6.3 3.8-1.1 0.3-2.2 0.5-3.3 0.5s-2-0.2-2.7-0.7-1-1.1-1-2 0.4-1.7 1.3-2.5c1.7-1.6 4.7-2.8 9-3.6 3.1-0.5 6.6-0.8 10.5-0.8h1c0.5-0.5 1-0.7 1.5-0.7 0.4 0 0.7 0.2 0.7 0.5v0.3c3.8 0.3 6.9 0.9 9.3 1.9 2.9 1 4.3 2.6 4.3 4.5zm-1.8-0.4c0-1.6-1.3-2.8-3.8-3.8-2.2-0.9-4.9-1.4-8.3-1.6l-1.2 3.7c-0.9 2.3-2.7 5.6-5.4 9.7 0.2 0.1 0.7 0.3 1.3 0.4 1 0.2 1.8 0.3 2.3 0.3 1.9 0 4-0.4 6.5-1.2 2.4-0.8 4.5-1.9 6.1-3.4 1.7-1.5 2.5-2.8 2.5-4.1z"/>
<linearGradient id="h" x1="80.421" x2="80.28" y1="-1.0143" y2="29.05" gradientUnits="userSpaceOnUse">
	<stop stop-color="#222220" offset=".2194"/>
	<stop stop-color="#1C1C1C" offset=".5204"/>
	<stop stop-color="#020202" offset=".7704"/>
</linearGradient>
<path class="st1" d="m101.7 9.9c0 1.3-0.6 2.6-1.9 4.1s-3.2 2.7-5.7 3.7c-2.6 0.9-5 1.4-7.4 1.4s-4.3-0.3-5.7-0.9c-3.1 4.6-5.1 7.3-6.1 8.3-2.7 2.7-5.8 4-9.5 4-2.1 0-3.7-0.5-4.7-1.5s-1.6-2.2-1.6-3.8c0-2.1 0.9-4.2 2.6-6.1 1.9-2.1 4.3-3.1 7.2-3.1 1.2 0 2.2 0.3 3 0.8s1.2 1.4 1.2 2.5c0 0.7-0.5 1.5-1.3 2.7-1 1.6-1.8 2-2 2.2-0.5 0.5-7.4 4.8-7.4 4.7s6.9-4.4 7.7-5.5c0.9-1.1 1.4-2.4 1.4-3.4s-0.3-1.7-0.9-2.3c-0.6-0.5-1.4-0.8-2.2-0.8-2.1 0-3.9 0.9-5.5 2.8s-2.4 3.8-2.4 5.7c0 1.2 0.4 2.2 1.2 3s2 1.1 3.6 1.1c3 0 5.6-1 7.8-3.1 1.3-1.2 2.5-2.9 3.8-5.2l3.2-5.8c1.6-2.5 3.4-6.3 5.5-11.3h-0.7c-3.3 0-6.7 0.4-10 1.1-3.4 0.7-5.9 1.8-7.6 3.1-0.7 0.6-1.1 1.1-1.1 1.7 0 0.5 0.3 1 0.9 1.3s1.3 0.5 2.1 0.5 1.8-0.2 2.9-0.5c1.2-0.3 3.6-2 4.2-2.5 0.2-0.2 7.1-6.6 7.2-6.6 0.2 0-5.8 6.3-6 6.5-0.9 1-3.9 3.1-6.3 3.8-1.1 0.3-2.2 0.5-3.3 0.5s-2-0.2-2.7-0.7-1-1.1-1-2 0.4-1.7 1.3-2.5c1.7-1.6 4.7-2.8 9-3.6 3.1-0.5 6.6-0.8 10.5-0.8h1c0.5-0.5 1-0.7 1.5-0.7 0.4 0 0.7 0.2 0.7 0.5v0.3c3.8 0.3 6.9 0.9 9.3 1.9 2.8 1 4.2 2.6 4.2 4.5zm-1.8-0.4c0-1.6-1.3-2.8-3.8-3.8-2.2-0.9-4.9-1.4-8.3-1.6l-1.2 3.7c-0.9 2.3-2.7 5.6-5.4 9.7 0.2 0.1 0.7 0.3 1.3 0.4 1 0.2 1.8 0.3 2.3 0.3 1.9 0 4-0.4 6.5-1.2 2.4-0.8 4.5-1.9 6.1-3.4 1.7-1.5 2.5-2.8 2.5-4.1z"/>
	<linearGradient id="g" x1="25.873" x2="25.731" y1="-.016864" y2="30.047" gradientUnits="userSpaceOnUse">
		<stop stop-color="#222220" offset=".2194"/>
		<stop stop-color="#1C1C1C" offset=".5204"/>
		<stop stop-color="#020202" offset=".7704"/>
	</linearGradient>
	<path class="st2" d="m28.7 29.2c-0.7 0-1.1-0.4-1.1-1.2 0-0.4 0.1-0.9 0.3-1.3 0.2-0.5 0.4-0.9 0.7-1.2h-0.2c-0.2 0-0.4-0.2-0.6-0.5l-0.5 0.6c-0.7 0.8-1.5 1.5-2.5 2.1-1.8 1-4.2 2.2-4.2 2.1-0.3 0-1.3 0.5-1.3 0.4s6.1-3.2 6.3-3.4c1.6-1.4 1.7-1.6 2-2.3 0.2-0.8 0.5-1.3 0.8-1.3 0.2 0 0.3 0.1 0.3 0.3s-0.1 0.4-0.4 0.7l-0.4 0.5c0 0.2 0.2 0.3 0.5 0.3 0.2 0 0.4-0.1 0.6-0.2l0.4-0.2h0.1s0.2 0 0.2 0.1c0.1 0.1 0.1 0.2 0.1 0.3l-1 1.3c-0.6 0.8-0.9 1.4-0.9 1.9s0.2 0.7 0.6 0.7 1-0.2 1.6-0.7c0.4-0.3 0.7-0.6 1.1-0.9l0.5-0.5c0.1 0 0.1 0 0.1 0.1s0 0.2-0.1 0.3l-0.5 0.5c-0.3 0.3-0.6 0.5-0.9 0.8-0.4 0.4-1.1 0.7-1.6 0.7z"/>
	<linearGradient id="f" x1="35.058" x2="34.916" y1=".026462" y2="30.091" gradientUnits="userSpaceOnUse">
		<stop stop-color="#222220" offset=".2194"/>
		<stop stop-color="#1C1C1C" offset=".5204"/>
		<stop stop-color="#020202" offset=".7704"/>
	</linearGradient>
	<path class="st3" d="m36.4 24.7h0.2c0.1 0 0.2 0 0.3 0.1s0.1 0.2 0.1 0.2-0.3 0.5-0.9 1.4-0.9 1.5-0.9 1.9v0.1c0 0.2 0.2 0.3 0.3 0.3 0.5 0 1.4-0.8 2.8-2.5l0.1-0.1s0.1 0 0.1 0.1 0 0.2-0.1 0.3c-1.2 1.7-2.2 2.5-2.8 2.5h-0.2c-0.4-0.2-0.6-0.5-0.6-1 0-0.2 0-0.3 0.1-0.5l-0.9 0.9c-0.6 0.5-1 0.8-1.2 0.8-0.3 0-0.5-0.1-0.7-0.2-0.3-0.2-0.4-0.5-0.4-0.8 0-0.7 0.5-1.6 1.5-2.5 1-1 1.9-1.5 2.7-1.5 0.3 0 0.5 0.1 0.6 0.3-0.2 0-0.2 0.1-0.1 0.2-0.1 0-0.1 0 0 0zm-4.4 3.6c0 0.3 0.1 0.5 0.4 0.5 0.6 0 1.3-0.6 2.3-1.9l1.5-2.1c-0.1-0.1-0.2-0.2-0.4-0.2-0.6 0-1.4 0.5-2.4 1.4-0.9 1-1.4 1.7-1.4 2.3z"/>
	<linearGradient id="e" x1="44.33" x2="44.188" y1=".070201" y2="30.134" gradientUnits="userSpaceOnUse">
		<stop stop-color="#222220" offset=".2194"/>
		<stop stop-color="#1C1C1C" offset=".5204"/>
		<stop stop-color="#020202" offset=".7704"/>
	</linearGradient>
	<path class="st4" d="m42.4 24.3 8.1-0.7h0.5c0 0.1-8.2 1-9.4 1.2s-1.9 0.2-2 0.3c-0.2 0.2-0.5 0.7-1 1.5s-0.7 1.4-0.7 1.8 0.2 0.5 0.7 0.5c0.2 0 0.5-0.1 0.9-0.2s0.7-0.3 0.9-0.4c0.5-0.3 1.1-0.8 1.7-1.5 0.1-0.1 0.2-0.2 0.3-0.2v0.1s-0.1 0.2-0.2 0.3c-0.5 0.6-1.1 1.1-1.7 1.5-0.8 0.5-1.5 0.7-2.2 0.7-0.3 0-0.5-0.1-0.7-0.2s-0.3-0.4-0.3-0.8 0.2-0.9 0.5-1.6 0.6-1.2 0.8-1.6h-0.3c-0.3 0-0.4-0.1-0.4-0.3s0.1-0.3 0.3-0.3h0.1 0.8c0.2-0.2 0.4-0.5 0.6-0.8 0.3-0.3 0.5-0.5 0.6-0.5s0.2 0 0.4 0.1c0.1 0.1 0.2 0.2 0.2 0.3s-0.2 0.4-0.7 0.9c0.4 0 1.8-0.1 2.2-0.1z"/>
	<linearGradient id="d" x1="44.048" x2="43.907" y1=".068872" y2="30.133" gradientUnits="userSpaceOnUse">
		<stop stop-color="#222220" offset=".2194"/>
		<stop stop-color="#1C1C1C" offset=".5204"/>
		<stop stop-color="#020202" offset=".7704"/>
	</linearGradient>
	<path class="st5" d="m42.6 29.3h-0.3c-0.6-0.2-0.9-0.5-0.9-1 0-0.7 0.4-1.5 1.3-2.4s1.6-1.3 2.3-1.3c0.2 0 0.4 0.1 0.5 0.2s0.2 0.3 0.2 0.4c0 0.5-0.4 1.1-1.2 1.6s-1.5 0.7-2 0.7h-0.2c-0.1 0.3-0.2 0.5-0.2 0.8 0 0.5 0.2 0.8 0.7 0.8s1.1-0.3 1.9-1c0.6-0.5 1.1-1 1.5-1.5l0.2-0.2c0.1 0 0.1 0 0.1 0.1s0 0.1-0.1 0.2c-0.5 0.7-1.2 1.3-1.9 1.8-0.8 0.5-1.4 0.8-1.9 0.8zm2.7-4.2c0-0.1-0.1-0.2-0.4-0.2s-0.6 0.2-1.1 0.6c-0.6 0.5-1.1 1-1.4 1.6h0.2c0.4 0 0.9-0.2 1.5-0.6s1-0.8 1.2-1.3v-0.1z"/>
	<linearGradient id="c" x1="47.796" x2="47.654" y1=".086549" y2="30.151" gradientUnits="userSpaceOnUse">
		<stop stop-color="#222220" offset=".2194"/>
		<stop stop-color="#1C1C1C" offset=".5204"/>
		<stop stop-color="#020202" offset=".7704"/>
	</linearGradient>
	<path class="st6" d="m46.3 29.3h-0.3c-0.6-0.2-0.9-0.5-0.9-1 0-0.7 0.4-1.5 1.3-2.4s1.6-1.3 2.3-1.3c0.2 0 0.4 0.1 0.5 0.2s0.2 0.3 0.2 0.4c0 0.5-0.4 1.1-1.2 1.6s-1.5 0.7-2 0.7h-0.2c-0.1 0.3-0.2 0.5-0.2 0.8 0 0.5 0.2 0.8 0.7 0.8s1.1-0.3 1.9-1c0.6-0.5 1.1-1 1.5-1.5l0.2-0.2c0.1 0 0.1 0 0.1 0.1s0 0.1-0.1 0.2c-0.5 0.7-1.2 1.3-1.9 1.8s-1.4 0.8-1.9 0.8zm2.8-4.2c0-0.1-0.1-0.2-0.4-0.2s-0.6 0.2-1.1 0.6c-0.6 0.5-1.1 1-1.4 1.6h0.2c0.4 0 0.9-0.2 1.5-0.6s1-0.8 1.2-1.3v-0.1z"/>
	<linearGradient id="b" x1="52.457" x2="52.316" y1=".1085" y2="30.173" gradientUnits="userSpaceOnUse">
		<stop stop-color="#222220" offset=".2194"/>
		<stop stop-color="#1C1C1C" offset=".5204"/>
		<stop stop-color="#020202" offset=".7704"/>
	</linearGradient>
	<path class="st7" d="m52.3 29.3c-0.8 0-1.4-0.6-2-1.8-0.1 0.2-0.4 0.8-0.9 1.7-0.3-0.1-0.5-0.3-0.5-0.6 0-0.4 0.6-1.6 1.9-3.4 1.3-1.9 2.1-3 2.6-3.3h0.2c0.3 0 0.5 0.1 0.5 0.2s-0.3 0.5-1 1.3-1.1 1.3-1.1 1.4c0.9-0.5 1.6-0.7 2.1-0.7 0.3 0 0.6 0.1 0.8 0.4 0.2 0.2 0.3 0.4 0.3 0.6v0.1c-0.1 0.6-0.5 1-1.2 1.4-0.6 0.3-1.1 0.5-1.6 0.5s-0.8-0.1-1-0.2h-0.1v0.1c0.3 1.2 0.7 1.8 1.4 1.8 0.3 0 0.8-0.2 1.3-0.6s1.1-0.9 1.6-1.6c0.1-0.1 0.1-0.1 0.2-0.1s0.1 0 0.1 0.1 0 0.1-0.1 0.2c-0.5 0.6-1 1.1-1.5 1.5-0.9 0.7-1.5 1-2 1zm2.1-4.5c0-0.1 0-0.2-0.1-0.2-0.1-0.1-0.2-0.1-0.3-0.1-0.5 0-1.2 0.2-1.9 0.7-0.7 0.4-1.2 0.9-1.3 1.5h0.7c0.4 0 1-0.2 1.7-0.5 0.8-0.5 1.2-0.9 1.2-1.4z"/>
<linearGradient id="a" x1="79.096" x2="78.954" y1="-.6533" y2="29.411" gradientUnits="userSpaceOnUse">
	<stop stop-color="#222220" offset=".2194"/>
	<stop stop-color="#1C1C1C" offset=".5204"/>
	<stop stop-color="#020202" offset=".7704"/>
</linearGradient>
<path class="st8" d="m80.5 24.2h0.2c0.1 0 0.2 0 0.3 0.1l0.2 0.2c0 0.1-0.3 0.5-0.9 1.5-0.6 0.9-0.9 1.6-0.9 1.9v0.1c0.1 0.2 0.2 0.3 0.3 0.3 0.5 0 1.5-0.9 2.9-2.6l0.1-0.1s0.1 0 0.1 0.1 0 0.2-0.1 0.3c-1.3 1.7-2.3 2.6-3 2.6h-0.3c-0.4-0.2-0.7-0.5-0.7-1 0-0.2 0-0.3 0.1-0.5l-1 0.9c-0.6 0.5-1 0.8-1.3 0.8s-0.5-0.1-0.8-0.3-0.4-0.5-0.4-0.8c0-0.7 0.5-1.6 1.5-2.7 1-1 2-1.5 2.8-1.5 0.3 0 0.6 0.1 0.7 0.3l0.2 0.4c-0.1-0.1-0.1 0 0 0zm-4.6 3.7c0 0.4 0.1 0.5 0.4 0.5 0.6 0 1.4-0.6 2.4-1.9l1.6-2.2c-0.1-0.1-0.2-0.2-0.4-0.2-0.6 0-1.4 0.5-2.5 1.4-1 1-1.5 1.8-1.5 2.4z"/>
<linearGradient id="l" x1="86.428" x2="86.286" y1="-.6187" y2="29.445" gradientUnits="userSpaceOnUse">
	<stop stop-color="#222220" offset=".2194"/>
	<stop stop-color="#1C1C1C" offset=".5204"/>
	<stop stop-color="#020202" offset=".7704"/>
</linearGradient>
<path class="st9" d="m85.6 23.8 4.5-0.2s0.9-0.1 0.9-0.1c0 0.1-3.8 0.5-5.1 0.7s-1.9 0.3-2 0.3c-0.2 0.2-0.5 0.7-1.1 1.5-0.5 0.9-0.8 1.5-0.8 1.9s0.3 0.6 0.8 0.6c0.2 0 0.6-0.1 1-0.2 0.4-0.2 0.7-0.3 0.9-0.4 0.6-0.4 1.2-0.9 1.8-1.6 0.1-0.1 0.2-0.2 0.3-0.2v0.1s-0.1 0.2-0.2 0.4c-0.5 0.6-1.1 1.2-1.8 1.6-0.8 0.5-1.5 0.7-2.3 0.7-0.3 0-0.6-0.1-0.8-0.2s-0.3-0.4-0.3-0.8 0.2-1 0.5-1.7c0.4-0.7 0.6-1.3 0.8-1.6h-0.4c-0.3 0-0.4-0.1-0.4-0.3s0.1-0.3 0.4-0.4h0.1 0.9c0.2-0.2 0.4-0.5 0.6-0.8 0.3-0.4 0.5-0.5 0.6-0.5s0.2 0 0.4 0.1 0.2 0.2 0.2 0.3-0.2 0.4-0.7 1c0.4-0.2 0.8-0.2 1.2-0.2z"/>
<linearGradient id="k" x1="88.459" x2="88.317" y1="-.6092" y2="29.455" gradientUnits="userSpaceOnUse">
	<stop stop-color="#222220" offset=".2194"/>
	<stop stop-color="#1C1C1C" offset=".5204"/>
	<stop stop-color="#020202" offset=".7704"/>
</linearGradient>
<path class="st10" d="m86.9 28.9h-0.3c-0.6-0.2-1-0.5-1-1.1 0-0.7 0.4-1.5 1.3-2.5 0.9-0.9 1.7-1.4 2.4-1.4 0.2 0 0.4 0.1 0.6 0.2 0.1 0.1 0.2 0.3 0.2 0.5 0 0.6-0.4 1.1-1.3 1.6s-1.6 0.8-2.1 0.8h-0.2c-0.2 0.3-0.2 0.6-0.2 0.9 0 0.5 0.3 0.8 0.8 0.8s1.2-0.3 2-1c0.6-0.5 1.1-1 1.6-1.6l0.2-0.2c0.1 0 0.1 0 0.1 0.1s0 0.1-0.1 0.3c-0.5 0.7-1.2 1.4-2 1.9-0.8 0.4-1.4 0.7-2 0.7zm2.9-4.4c0-0.1-0.1-0.2-0.4-0.2s-0.6 0.2-1.1 0.6c-0.6 0.5-1.1 1.1-1.5 1.7h0.2c0.4 0 0.9-0.2 1.5-0.6s1-0.9 1.2-1.3c0.1-0.1 0.1-0.1 0.1-0.2z"/>
<linearGradient id="j" x1="92.481" x2="92.339" y1="-.5902" y2="29.474" gradientUnits="userSpaceOnUse">
	<stop stop-color="#222220" offset=".2194"/>
	<stop stop-color="#1C1C1C" offset=".5204"/>
	<stop stop-color="#020202" offset=".7704"/>
</linearGradient>
<path class="st11" d="m90.7 27.9c0 0.3 0.2 0.5 0.5 0.5s0.8-0.2 1.3-0.5c0.5-0.4 1-0.8 1.5-1.4 0.1-0.2 0.2-0.2 0.3-0.2s0.1 0 0.1 0.1-0.2 0.3-0.6 0.8c-1 1.1-1.9 1.7-2.5 1.7-0.3 0-0.6-0.1-0.9-0.2-0.2-0.2-0.3-0.4-0.3-0.7s0.1-0.7 0.3-1.1c0.3-0.7 0.8-1.6 1.4-2.6 1.2-1.9 2-2.9 2.5-2.9 0.1 0 0.2 0 0.3 0.1s0.2 0.2 0.2 0.3c-0.2 0.3-0.7 0.9-1.3 1.8-0.7 0.9-1.1 1.5-1.4 1.9s-0.4 0.7-0.6 0.9c-0.1 0.2-0.2 0.3-0.3 0.4s-0.1 0.2-0.2 0.4c-0.3 0.1-0.3 0.4-0.3 0.7z"/>
</svg>
