<?xml version="1.0" encoding="UTF-8"?>
<svg enable-background="new 0 0 192.8 187.1" version="1.1" viewBox="0 0 192.8 187.1" xml:space="preserve" xmlns="http://www.w3.org/2000/svg">
<style type="text/css">
	.st0{fill:#FFFFFF;}
</style>
	<path class="st0" d="m108.3 26.3h63.3c10.7 0 13 2.3 13 12.6v88.4c0 9.1-1.9 11.2-10.8 11.2-29.5 0.1-58.9-0.2-88.4 0.2-7.8 0.1-8.2-3.6-8-9.4 0.1-5.7-0.5-10.6 8-10.4 28.4 0.4 56.8 0 85.2 0.3 6.2 0.1 7.7-1.8 7.6-7.8-0.3-23.5-0.3-47 0-70.6 0.1-6.2-2.1-7.9-7.9-7.9-41.6 0.2-83.3 0.2-124.9 0-5.1 0-7.5 1.5-7.2 6.9s0.1 10.8 0.1 16.2c0 2.4 0.4 5.1-3.3 5.2-3.2 0.1-4.1-1.8-4.1-4.7 0.1-7-0.3-14.1 0.1-21.1 0.4-7.1 5.3-9.3 11.8-9.3 21.7 0.2 43.6 0.2 65.5 0.2zm-0.2 104.4c1.2-0.3 2.8-0.8 3.1-2.7 0.4-2.3-0.8-3.7-2.9-4-1.8-0.3-3.1 0.7-3.5 2.5-0.3 2.2 0.6 3.6 3.3 4.2z"/>
	<path class="st0" d="m9.3 114.9c0-12.7 0.2-25.4-0.1-38.1-0.1-5.9 2.3-8.5 8.1-8.4 14.8 0 29.7 0.1 44.5 0 6.2 0 8.7 3 8.7 9-0.1 24.8-0.1 49.7 0 74.5 0 6.5-2.6 9.2-9.2 9.1-14.3-0.3-28.6-0.4-42.9 0-7.3 0.2-9.3-2.9-9.1-9.7 0.2-12.1 0-24.2 0-36.4zm55.3 1.4c0-10-0.1-20 0-29.9 0.1-3.9-0.8-6-5.3-6-13.2 0.2-26.4 0.2-39.7 0-4.2-0.1-5.6 1.6-5.6 5.7 0.1 19.2 0.2 38.3 0 57.5-0.1 5.1 2.1 6.4 6.7 6.4 12.7-0.2 25.4-0.2 38 0 4.7 0.1 6-1.7 5.9-6.1-0.1-9.3 0-18.5 0-27.6z"/>
	<path class="st0" d="m110.7 160.8h-28.3c-3.1 0-5.1-0.6-5.2-4.4s2-4.4 5-4.4c5.2-0.1 11.6 2.2 13.2-6.2 0.1-0.6 2.9-0.8 4.4-0.8 6.2-0.1 12.4 0 18.6-0.1 3 0 5.4 0.3 5.6 4 0.2 2.9 2.5 3 4.8 3.1 3.2 0 6.5-0.1 9.7 0.1 2.9 0.2 6.8-1.4 6.9 4.1 0.1 5.9-4 4.6-7.3 4.6-9.1 0.1-18.2 0-27.4 0z"/>
</svg>
